<?xml version="1.0" standalone="no"?>
<!DOCTYPE svg PUBLIC "-//W3C//DTD SVG 20010904//EN"
 "http://www.w3.org/TR/2001/REC-SVG-20010904/DTD/svg10.dtd">
<svg version="1.0" xmlns="http://www.w3.org/2000/svg"
 width="1652.000000pt" height="1652.000000pt" viewBox="0 0 1652.000000 1652.000000"
 preserveAspectRatio="xMidYMid meet">
<metadata>
Created by potrace 1.11, written by Peter Selinger 2001-2013
</metadata>
<g transform="translate(0.000000,1652.000000) scale(0.100000,-0.100000)"
fill="#000000" stroke="none">
<path d="M16060 16503 c0 -12 -7 -20 -145 -168 -162 -173 -172 -184 -266 -286
-48 -52 -102 -110 -120 -130 -45 -47 -237 -254 -268 -288 -20 -22 -157 -170
-266 -286 -16 -18 -75 -81 -130 -140 -55 -59 -116 -125 -135 -145 -19 -21 -57
-62 -84 -91 -27 -30 -98 -106 -157 -169 -59 -63 -116 -124 -126 -136 -10 -12
-68 -75 -129 -140 -62 -65 -125 -133 -140 -150 -16 -17 -72 -78 -126 -135 -53
-57 -108 -117 -123 -134 -16 -16 -76 -82 -135 -145 -59 -63 -121 -129 -136
-146 -16 -17 -74 -80 -129 -139 -55 -59 -111 -119 -124 -134 -13 -14 -72 -78
-131 -141 -59 -63 -121 -129 -136 -146 -16 -17 -76 -82 -134 -144 -58 -62
-118 -127 -134 -144 -233 -254 -251 -270 -333 -300 -249 -91 -676 -292 -863
-405 -210 -128 -338 -222 -454 -335 -54 -53 -72 -67 -58 -44 24 40 161 278
192 333 12 22 48 85 80 140 32 55 67 116 77 135 11 19 80 139 152 265 73 127
187 325 254 441 l120 211 105 52 c403 201 744 516 945 876 118 212 222 514
252 735 3 25 8 52 10 60 4 17 16 124 21 190 4 60 4 367 0 405 -2 17 -7 65 -11
108 -9 95 -10 94 -90 -58 -32 -60 -77 -146 -100 -190 -104 -195 -136 -257
-195 -370 -34 -66 -84 -160 -110 -210 -26 -49 -77 -146 -112 -215 -36 -69 -95
-181 -131 -250 -35 -69 -94 -182 -131 -252 -36 -71 -95 -183 -130 -250 -35
-68 -106 -206 -159 -308 -153 -295 -164 -314 -189 -332 -12 -9 -77 -51 -143
-93 -111 -71 -356 -249 -415 -301 -14 -12 -79 -69 -145 -127 -147 -129 -369
-355 -483 -492 -272 -328 -529 -745 -682 -1110 -23 -55 -48 -113 -55 -130 -28
-64 -106 -292 -107 -312 0 -5 -4 -15 -9 -24 -18 -35 -100 -373 -114 -476 -3
-21 -8 -49 -11 -63 -10 -55 -12 -67 -18 -120 -4 -30 -8 -68 -10 -85 -16 -117
-26 -405 -16 -405 5 0 20 15 35 33 15 17 53 59 84 92 31 33 112 121 181 195
69 74 136 146 150 161 27 29 212 228 251 270 55 60 225 243 240 258 8 9 76 81
149 161 74 80 139 150 145 156 20 21 220 237 249 268 15 17 72 78 126 136 54
58 111 119 126 135 15 17 73 79 128 139 121 130 121 130 266 286 63 68 122
131 130 140 8 9 67 72 130 140 63 69 126 137 140 151 14 14 68 73 120 129 52
57 113 123 135 146 35 37 68 54 260 134 711 296 1227 553 1532 762 43 29 80
55 83 58 3 3 32 25 65 49 167 123 336 286 544 526 14 17 42 50 61 75 19 25 41
52 47 60 14 16 183 244 250 337 61 83 181 287 255 433 63 122 100 203 168 365
89 213 225 669 265 890 3 17 11 59 19 95 8 36 12 67 10 69 -2 2 -4 0 -4 -6z"/>
<path d="M464 16425 c3 -11 8 -35 11 -53 62 -368 229 -874 411 -1242 158 -321
350 -610 632 -950 406 -489 832 -791 1602 -1135 58 -26 123 -55 145 -65 105
-47 350 -151 535 -227 193 -79 208 -87 254 -136 26 -29 101 -108 166 -177 65
-69 132 -141 150 -160 18 -19 95 -101 172 -182 77 -81 148 -156 157 -166 9
-11 72 -79 141 -152 69 -72 141 -149 160 -169 19 -21 96 -102 170 -181 74 -79
151 -160 170 -181 113 -120 290 -308 320 -339 32 -34 216 -230 290 -310 18
-19 94 -100 170 -180 76 -80 152 -161 170 -180 44 -48 131 -140 292 -310 75
-80 165 -175 200 -212 61 -66 82 -81 73 -55 -2 6 -6 80 -9 162 -3 83 -8 168
-11 190 -3 22 -11 74 -16 115 -18 134 -23 160 -44 265 -91 446 -262 895 -498
1305 -351 612 -872 1161 -1473 1553 -223 145 -230 148 -178 65 15 -23 66 -110
114 -193 148 -256 485 -834 511 -875 11 -19 175 -303 201 -350 11 -19 24 -39
29 -44 5 -6 9 -13 9 -16 0 -3 -36 30 -80 72 -236 229 -664 471 -1227 693
l-173 68 -92 96 c-79 83 -239 252 -367 390 -79 85 -413 440 -496 526 -16 17
-82 87 -145 154 -63 68 -135 144 -160 170 -50 53 -269 286 -320 341 -28 30
-239 254 -310 330 -34 36 -309 328 -391 415 -36 39 -106 112 -155 164 -49 52
-102 109 -119 126 -74 80 -282 301 -305 325 -102 108 -283 301 -310 330 -18
19 -92 98 -165 175 -73 77 -152 160 -175 185 -27 29 -40 38 -36 25z"/>
<path d="M3259 15869 c-1 -8 -3 -23 -4 -34 -5 -40 -16 -242 -17 -315 -1 -81
11 -321 17 -330 2 -3 6 -32 9 -65 6 -66 26 -166 56 -284 159 -625 559 -1104
1178 -1415 50 -25 92 -44 92 -41 0 6 -48 98 -150 290 -36 68 -82 154 -190 360
-29 55 -69 132 -90 170 -21 39 -63 120 -95 180 -71 135 -136 258 -185 350 -21
39 -61 115 -90 170 -47 88 -97 183 -253 475 -22 41 -52 98 -67 125 -15 28 -53
100 -85 160 -55 103 -112 205 -121 214 -2 2 -5 -2 -5 -10z"/>
<path d="M10620 14747 c0 -3 -7 -32 -15 -64 -33 -127 -38 -495 -11 -768 19
-179 41 -345 61 -445 3 -14 8 -38 11 -55 18 -106 64 -257 115 -382 15 -38 32
-44 25 -10 -3 12 -10 72 -16 132 -6 61 -13 128 -15 150 -2 22 -7 67 -10 100
-3 33 -7 76 -10 95 -2 19 -7 67 -10 105 -4 39 -8 81 -10 95 -2 14 -6 61 -10
105 -4 44 -8 94 -10 110 -5 37 -15 135 -21 195 -2 25 -11 115 -19 200 -9 85
-18 180 -21 210 -12 137 -24 223 -30 229 -2 2 -4 2 -4 -2z"/>
<path d="M5900 14705 c-1 -22 -3 -49 -4 -60 -2 -11 -6 -60 -10 -109 -5 -50 -9
-97 -11 -105 -1 -9 -6 -56 -9 -106 -4 -49 -9 -97 -11 -105 -2 -8 -6 -57 -10
-108 -3 -51 -8 -102 -10 -113 -2 -10 -6 -58 -10 -105 -3 -47 -7 -100 -10 -117
-2 -18 -7 -63 -10 -102 -4 -38 -8 -83 -10 -100 -2 -16 -7 -66 -10 -110 -4 -44
-8 -93 -10 -110 -2 -16 -7 -61 -10 -100 -3 -38 -7 -92 -10 -120 -3 -27 -7 -75
-10 -105 l-5 -55 25 47 c34 65 85 232 110 363 19 99 44 260 50 320 4 39 9 77
10 85 2 9 6 60 10 115 4 55 9 116 11 135 7 61 6 392 -1 465 -8 91 -23 169 -41
209 l-13 31 -1 -40z"/>
<path d="M13145 11079 c-326 -122 -388 -144 -730 -261 -440 -150 -603 -223
-875 -386 -237 -143 -852 -574 -1045 -733 -11 -10 -74 -61 -141 -115 -218
-178 -212 -171 -221 -269 l-5 -64 52 -48 c29 -26 61 -65 71 -85 24 -47 30
-127 18 -215 -26 -184 -15 -253 43 -278 32 -13 136 -14 248 -1 25 3 72 8 106
11 33 3 71 7 85 9 13 3 46 7 72 11 27 4 57 8 67 10 9 2 33 6 51 9 19 3 70 12
114 21 44 9 91 18 105 21 147 28 444 121 628 196 334 135 548 266 728 443 216
213 315 400 630 1200 63 160 119 299 123 310 36 80 80 208 85 248 4 26 6 47 4
46 -2 -1 -97 -37 -213 -80z"/>
<path d="M3205 11073 c4 -27 17 -73 30 -103 13 -30 77 -190 143 -355 182 -454
284 -689 384 -890 117 -234 292 -431 521 -585 202 -136 623 -316 902 -386 6
-1 53 -14 105 -27 52 -14 113 -28 135 -31 22 -4 56 -11 75 -16 19 -5 53 -11
75 -15 22 -3 81 -12 130 -20 238 -37 509 -54 554 -35 51 21 61 47 56 152 -2
51 -7 107 -11 123 -3 17 -7 62 -7 101 0 90 26 148 95 206 l50 43 -5 60 c-3 33
-10 72 -15 86 -31 80 -821 669 -1289 962 -68 43 -125 77 -127 77 -2 0 -37 19
-78 43 -182 108 -396 200 -678 292 -228 74 -339 113 -723 251 -175 63 -321
114 -324 114 -3 0 -2 -21 2 -47z"/>
<path d="M10570 8078 c-63 -89 -123 -176 -134 -193 -10 -16 -22 -32 -25 -35
-4 -3 -53 -70 -108 -150 -56 -80 -193 -274 -305 -432 -111 -159 -275 -390
-363 -515 -88 -126 -163 -232 -168 -238 -4 -5 -39 -55 -78 -110 -38 -55 -81
-116 -95 -135 -27 -38 -263 -372 -567 -805 -104 -148 -213 -301 -240 -339 -49
-66 -50 -69 -36 -95 14 -24 20 -26 74 -25 100 1 172 12 276 43 51 16 152 83
183 122 14 19 60 81 103 139 92 125 310 347 443 452 107 85 306 228 317 228 4
0 16 8 27 18 12 10 75 52 141 92 159 98 241 160 421 321 110 100 157 173 187
294 18 68 24 141 32 340 3 77 8 167 10 200 2 33 7 107 10 165 4 58 8 125 10
150 2 25 6 88 10 140 3 52 8 118 10 145 3 28 7 88 10 135 7 105 14 180 21 201
4 13 -32 49 -48 49 -2 0 -55 -73 -118 -162z"/>
<path d="M5857 8206 c-11 -9 -17 -22 -14 -33 6 -21 14 -91 23 -218 3 -49 8
-106 9 -125 2 -19 7 -78 10 -130 3 -52 8 -111 10 -130 2 -19 7 -80 11 -135 9
-141 9 -139 30 -510 13 -246 51 -353 169 -470 80 -79 250 -224 310 -264 22
-14 42 -29 43 -33 2 -5 7 -8 12 -8 26 0 417 -260 575 -382 163 -126 370 -335
479 -483 49 -66 105 -135 125 -153 82 -73 215 -118 387 -128 90 -5 91 -5 108
22 17 26 17 27 -11 68 -53 74 -664 929 -732 1023 -36 50 -72 99 -79 110 -19
28 -857 1198 -886 1238 -8 11 -132 184 -275 385 -143 201 -266 366 -273 367
-7 2 -21 -4 -31 -11z"/>
<path d="M10705 5502 c-20 -48 -42 -100 -50 -117 -25 -57 -327 -770 -345 -816
-10 -26 -28 -66 -39 -90 -11 -24 -119 -280 -241 -569 -122 -289 -232 -549
-246 -578 -13 -29 -24 -54 -24 -56 0 -4 -110 -265 -135 -321 -7 -16 -25 -59
-40 -95 -15 -36 -33 -78 -40 -95 -8 -16 -64 -149 -125 -295 -62 -146 -118
-278 -125 -295 -8 -16 -57 -133 -110 -260 -53 -126 -103 -243 -110 -260 -7
-16 -39 -91 -70 -165 -31 -74 -63 -148 -70 -165 -7 -16 -28 -64 -45 -105 -46
-111 -47 -112 -64 -151 -9 -20 -47 -112 -86 -204 -39 -92 -77 -182 -85 -199
-7 -17 -32 -76 -55 -131 -23 -55 -48 -113 -55 -130 -32 -70 -153 -362 -160
-383 -6 -21 -5 -23 12 -13 23 12 71 74 168 216 69 101 241 331 273 364 9 10
40 44 67 76 142 164 587 612 761 765 210 185 410 339 582 446 158 98 182 116
226 165 103 114 150 271 161 534 3 72 8 189 11 260 2 72 7 146 9 165 2 19 7
64 10 100 4 36 9 74 11 85 2 11 7 36 10 55 19 108 100 384 133 455 6 11 23 52
40 91 116 272 302 523 525 709 27 22 54 45 60 50 23 22 130 89 228 144 56 31
102 61 104 66 2 8 -880 721 -1010 817 l-24 18 -37 -88z"/>
<path d="M5505 5294 c-187 -151 -349 -283 -360 -292 -11 -10 -89 -73 -172
-141 -84 -68 -153 -127 -153 -130 0 -4 34 -25 76 -46 506 -261 848 -726 1008
-1370 41 -167 57 -313 71 -667 11 -267 32 -383 90 -504 51 -104 108 -159 283
-267 363 -227 618 -441 1082 -912 237 -240 318 -326 396 -424 10 -13 31 -38
45 -55 50 -59 199 -266 199 -275 0 -5 4 -11 8 -13 5 -2 28 -31 52 -66 52 -78
111 -141 117 -126 2 7 -7 36 -20 65 -14 30 -50 115 -82 189 -31 74 -65 153
-75 175 -10 22 -53 121 -95 220 -42 99 -86 200 -97 225 -11 25 -60 137 -108
250 -49 113 -118 275 -155 360 -37 85 -129 299 -205 475 -76 176 -218 505
-315 730 -98 226 -233 541 -302 700 -68 160 -130 304 -137 320 -8 17 -28 64
-46 105 -17 41 -40 93 -50 115 -10 22 -73 168 -140 325 -68 157 -130 303 -140
325 -10 22 -75 173 -145 335 -69 162 -148 345 -175 406 -27 61 -61 141 -76
177 -15 37 -30 67 -34 67 -3 0 -159 -124 -345 -276z"/>
</g>
</svg>
