<?xml version="1.0" standalone="no"?>
<!DOCTYPE svg PUBLIC "-//W3C//DTD SVG 20010904//EN"
 "http://www.w3.org/TR/2001/REC-SVG-20010904/DTD/svg10.dtd">
<svg version="1.0" xmlns="http://www.w3.org/2000/svg"
 width="512.000000pt" height="512.000000pt" viewBox="0 0 512.000000 512.000000"
 preserveAspectRatio="xMidYMid meet">
<metadata>
Created by potrace 1.11, written by Peter Selinger 2001-2013
</metadata>
<g transform="translate(0.000000,512.000000) scale(0.100000,-0.100000)"
fill="#000000" stroke="none">
<path d="M4344 5076 c2 -15 -1 -23 -7 -19 -6 4 -8 0 -4 -10 3 -10 3 -17 -2
-17 -4 0 -8 -6 -8 -12 0 -7 -4 -22 -9 -32 -6 -15 -4 -18 7 -12 8 4 6 1 -3 -7
-10 -8 -15 -17 -12 -20 4 -3 -4 -20 -16 -36 -12 -17 -19 -31 -16 -31 3 0 -3
-9 -14 -20 -11 -11 -20 -24 -20 -30 0 -5 -7 -10 -15 -10 -8 0 -15 -7 -15 -16
0 -8 -3 -13 -7 -11 -11 7 -33 -19 -25 -29 4 -4 1 -4 -6 1 -8 4 -12 17 -9 31 2
14 0 27 -5 30 -5 3 -7 12 -4 20 3 7 1 16 -5 19 -5 4 -6 12 -2 18 4 7 -1 6 -10
-2 -15 -12 -17 -12 -11 4 5 12 4 16 -4 11 -6 -3 -13 -2 -17 4 -3 5 0 10 7 10
9 0 9 3 -2 10 -11 7 -12 10 -2 10 8 0 12 6 9 13 -2 6 0 22 4 35 5 14 5 21 0
18 -5 -4 -11 -1 -13 6 -3 7 -11 -2 -18 -19 -8 -17 -19 -29 -25 -25 -5 3 -4 -1
3 -10 10 -13 10 -17 -2 -21 -8 -3 -17 -19 -21 -36 -4 -17 -10 -29 -15 -26 -9
6 -26 -34 -21 -50 1 -5 0 -7 -4 -3 -4 4 -17 -5 -29 -19 -23 -27 -52 -24 -42 3
3 8 0 13 -7 11 -7 -1 -11 4 -9 11 1 6 -5 12 -14 12 -9 0 -12 5 -8 13 5 8 2 7
-10 -2 -11 -10 -13 -16 -6 -21 6 -4 13 -26 14 -49 2 -31 -3 -49 -22 -74 -14
-17 -22 -23 -18 -13 5 15 4 17 -8 7 -9 -7 -17 -8 -20 -2 -3 5 0 12 6 14 10 4
10 6 1 6 -7 1 -10 8 -7 16 4 8 1 15 -5 15 -8 0 -9 6 -2 18 6 12 5 23 -5 36 -7
10 -11 23 -8 27 3 5 1 9 -5 9 -5 0 -8 9 -6 20 2 11 0 18 -5 15 -5 -3 -13 2
-18 11 -8 15 -10 15 -16 -1 -3 -10 -2 -23 4 -30 6 -8 6 -15 -2 -23 -9 -9 -9
-12 2 -12 10 0 11 -3 3 -11 -13 -13 -6 -42 8 -33 5 3 9 0 9 -5 0 -6 -4 -11
-10 -11 -5 0 -10 -5 -10 -11 0 -5 5 -7 11 -3 8 5 8 1 0 -13 -6 -11 -9 -22 -7
-24 9 -11 15 -69 6 -64 -6 4 -9 1 -8 -6 2 -7 -3 -14 -9 -15 -7 -1 -18 -2 -24
-3 -5 0 -7 -7 -4 -13 4 -7 -3 -2 -15 11 -16 19 -18 26 -8 32 8 5 9 9 2 9 -6 0
-10 11 -9 25 2 14 0 27 -5 30 -4 3 -6 14 -3 25 3 12 0 20 -6 20 -7 0 -9 5 -6
10 3 6 0 10 -7 10 -11 0 -10 2 0 9 11 7 11 9 -2 14 -9 4 -16 13 -16 22 0 8 -5
15 -11 15 -5 0 -7 5 -4 10 3 6 0 10 -8 10 -8 0 -22 10 -33 23 l-19 22 25 -20
25 -20 -19 23 c-20 24 -50 29 -62 11 -3 -6 0 -15 7 -20 8 -5 10 -9 5 -9 -5 0
1 -9 14 -20 15 -13 18 -20 9 -20 -8 -1 -3 -7 11 -15 15 -9 19 -15 10 -15 -12
0 -11 -4 4 -15 14 -11 16 -15 5 -15 -10 0 -11 -2 -2 -8 13 -8 25 -122 13 -122
-4 0 -5 -12 -2 -26 3 -19 1 -25 -6 -20 -8 5 -10 2 -6 -8 3 -9 1 -16 -6 -16 -6
0 -9 -4 -5 -9 7 -12 -50 -53 -59 -44 -4 4 -4 -1 0 -11 5 -14 4 -17 -4 -12 -7
4 -12 3 -12 -2 0 -6 -16 -26 -35 -45 -19 -19 -35 -40 -35 -46 0 -6 -5 -11 -11
-11 -5 0 -7 -4 -4 -10 3 -5 -1 -10 -9 -10 -9 0 -15 -6 -13 -12 1 -7 -3 -12 -9
-11 -6 1 -11 -5 -12 -13 -1 -8 -3 -21 -4 -29 -1 -9 -7 -14 -14 -11 -8 3 -11 0
-7 -10 7 -20 0 -18 -30 10 -18 17 -23 26 -14 30 7 4 2 4 -10 2 -12 -2 -21 -1
-20 3 3 11 -37 51 -53 51 -13 0 -13 1 0 10 13 8 12 10 -2 10 -10 0 -18 5 -18
10 0 6 -8 10 -17 11 -12 0 -14 2 -5 6 10 4 7 9 -10 17 -12 7 -22 18 -21 24 2
7 0 11 -5 11 -19 -3 -33 2 -28 10 3 5 -1 11 -9 15 -8 3 -12 12 -9 20 3 8 0 17
-5 21 -6 3 -9 11 -6 16 7 11 -6 12 -21 1 -20 -13 -23 -41 -8 -71 9 -17 20 -31
25 -31 5 0 9 -7 9 -15 0 -7 8 -19 18 -24 9 -6 14 -11 10 -11 -4 0 0 -9 9 -19
9 -11 20 -18 24 -15 4 2 6 -5 4 -16 -2 -11 -1 -18 4 -16 4 3 13 -4 21 -14 8
-10 17 -17 21 -14 5 2 6 -5 4 -16 -2 -11 0 -18 5 -15 5 3 14 -5 21 -17 7 -13
21 -31 31 -40 11 -9 17 -21 14 -26 -3 -6 1 -13 10 -16 8 -3 13 -10 10 -14 -3
-5 4 -15 15 -22 10 -8 19 -25 19 -37 0 -13 5 -23 11 -23 5 0 8 -4 4 -9 -3 -5
-1 -12 5 -16 6 -4 8 -11 5 -16 -4 -5 -2 -9 3 -9 6 0 15 -13 21 -30 5 -16 16
-30 23 -30 9 0 9 -3 -2 -10 -13 -8 -13 -10 1 -10 10 0 19 -12 23 -31 3 -17 10
-28 16 -24 5 3 10 -1 10 -9 0 -15 15 -38 48 -71 6 -8 12 -18 12 -23 0 -13 45
-53 53 -47 4 3 5 2 2 -2 -3 -3 2 -11 11 -18 14 -10 12 -13 -11 -23 -21 -10
-25 -10 -19 0 4 7 -5 2 -19 -11 -28 -25 -32 -32 -19 -30 19 3 22 -3 12 -21 -8
-16 -8 -20 2 -18 7 2 12 -4 10 -13 -1 -10 6 -19 19 -22 12 -3 18 -10 14 -16
-3 -6 -1 -11 5 -11 6 0 15 -11 20 -25 5 -14 17 -25 27 -26 11 0 13 -3 5 -6 -8
-3 6 -19 35 -41 74 -56 91 -75 99 -106 5 -20 4 -27 -4 -22 -14 8 -5 -20 12
-43 8 -11 8 -13 0 -8 -7 4 -14 -2 -17 -13 -3 -12 -1 -17 5 -14 6 4 8 -11 4
-40 -2 -26 0 -46 5 -46 6 0 5 -8 -1 -20 -8 -14 -8 -20 0 -20 6 0 8 -4 5 -10
-3 -5 0 -10 7 -10 8 0 9 -3 3 -8 -14 -10 -12 -64 2 -80 10 -10 10 -19 2 -34
-9 -16 -8 -19 1 -13 10 6 12 1 8 -19 -3 -15 -1 -26 6 -26 6 0 4 -5 -4 -10 -11
-7 -12 -10 -2 -10 9 0 11 -7 7 -20 -3 -11 -2 -20 3 -20 12 0 10 -19 -2 -39 -6
-10 -5 -12 2 -7 12 7 14 1 15 -41 0 -13 5 -23 10 -23 7 0 7 -4 -1 -12 -9 -9
-8 -16 6 -32 12 -14 13 -17 2 -11 -13 8 -13 7 -1 -8 11 -14 11 -17 0 -17 -12
0 -12 -2 0 -9 8 -5 11 -16 8 -24 -3 -9 -1 -18 6 -21 8 -3 8 -5 -2 -5 -10 -1
-11 -4 -2 -15 8 -9 8 -16 2 -20 -6 -4 -7 -14 -4 -23 5 -12 3 -14 -7 -8 -10 6
-11 4 -4 -6 12 -20 14 -39 3 -39 -6 0 -9 -6 -8 -12 3 -27 -1 -39 -13 -32 -8 5
-9 2 -5 -9 3 -10 2 -17 -3 -17 -6 0 -10 -7 -10 -17 0 -9 -3 -14 -6 -10 -8 8
-33 -16 -27 -25 2 -5 -3 -8 -11 -8 -9 0 -16 -7 -16 -16 0 -8 -4 -13 -9 -10 -5
3 -14 -1 -21 -10 -7 -8 -19 -13 -26 -10 -8 3 -13 0 -11 -6 1 -7 -2 -13 -8 -13
-5 -1 -18 -5 -27 -9 -9 -4 -22 -4 -29 0 -8 4 -9 3 -5 -4 4 -7 1 -12 -8 -12 -9
0 -16 -5 -16 -11 0 -5 -5 -7 -10 -4 -6 4 -18 1 -27 -7 -12 -9 -15 -9 -9 -1 4
7 2 13 -3 13 -6 0 -11 -5 -11 -10 0 -6 -15 -9 -35 -7 -26 3 -33 1 -26 -7 8 -9
-2 -12 -34 -11 -25 1 -45 -3 -45 -8 0 -6 -3 -7 -7 -4 -3 4 -13 1 -21 -6 -13
-9 -14 -9 -8 1 9 16 -6 16 -23 0 -10 -11 -11 -9 -6 7 6 19 6 19 -8 3 -11 -14
-16 -15 -27 -5 -10 9 -11 9 -6 0 5 -9 0 -13 -13 -13 -12 0 -21 6 -21 13 0 8
-4 7 -10 -3 -5 -8 -10 -12 -10 -9 0 4 -18 3 -40 -1 -24 -4 -41 -3 -43 3 -2 7
-9 7 -21 0 -11 -6 -33 -7 -52 -3 -19 4 -34 4 -34 -1 0 -5 -10 -5 -23 0 -14 5
-30 5 -40 0 -11 -7 -17 -6 -17 1 0 6 -5 8 -12 3 -17 -10 -38 -13 -38 -5 0 11
-64 8 -72 -3 -5 -7 -8 -7 -8 0 0 8 -85 13 -278 15 -15 0 -21 4 -16 12 5 7 3 8
-7 2 -19 -12 -33 -12 -41 1 -5 6 -8 5 -8 -3 0 -9 -5 -10 -18 -3 -11 6 -24 6
-35 0 -12 -7 -17 -6 -17 2 0 8 -4 8 -15 -1 -11 -9 -15 -9 -15 -1 0 9 -5 9 -20
1 -15 -8 -20 -8 -20 2 0 8 -3 9 -8 3 -10 -15 -93 -16 -86 -1 3 6 -1 3 -9 -6
-15 -19 -32 -25 -22 -8 3 6 1 10 -4 10 -6 0 -11 -5 -11 -11 0 -8 -4 -8 -13 -1
-8 7 -18 7 -27 2 -22 -14 -52 -12 -45 3 4 6 -1 3 -9 -7 -12 -15 -16 -16 -16
-5 0 10 -2 11 -8 2 -6 -10 -14 -9 -35 2 -15 8 -25 10 -22 5 9 -14 -19 -12 -34
3 -11 10 -12 9 -6 -3 4 -8 -2 -5 -14 8 -12 12 -26 22 -32 22 -6 0 -8 4 -4 9 3
5 -4 12 -15 16 -15 5 -19 12 -15 26 4 11 3 19 -2 18 -4 -1 -15 -1 -23 0 -13 1
-13 2 0 11 8 5 10 10 4 10 -6 0 -11 6 -12 13 -4 26 -10 62 -12 62 -1 0 -3 16
-4 36 -2 20 -7 42 -11 49 -5 9 -4 11 3 6 7 -4 12 -3 12 3 0 5 -6 12 -12 14
-10 4 -10 6 0 6 7 1 10 5 7 11 -11 17 -14 51 -5 45 5 -3 7 6 6 21 -4 36 -24
46 -47 23 -11 -11 -19 -23 -19 -29 0 -5 -4 -10 -10 -10 -5 0 -6 -7 -3 -17 5
-12 3 -14 -7 -8 -10 6 -12 3 -7 -14 4 -17 2 -21 -9 -17 -8 3 -13 2 -10 -3 3
-4 -3 -24 -13 -44 -10 -20 -14 -34 -7 -30 7 4 6 1 -1 -9 -7 -8 -10 -18 -6 -21
3 -4 1 -7 -4 -7 -6 0 -10 -11 -8 -25 1 -14 -2 -28 -6 -31 -5 -3 -5 -13 1 -23
5 -10 7 -21 3 -24 -3 -4 -1 -12 4 -19 6 -7 9 -21 8 -31 -2 -9 0 -15 5 -12 4 3
14 -3 21 -12 12 -14 12 -16 -1 -9 -8 5 -4 -3 10 -16 14 -14 28 -23 33 -21 4 2
7 -3 7 -11 0 -15 11 -20 26 -13 3 1 10 -6 16 -16 5 -10 22 -23 36 -29 16 -6
22 -12 14 -15 -6 -3 -10 -9 -7 -14 3 -4 -6 -11 -20 -15 -13 -3 -23 -10 -20
-14 3 -5 -4 -11 -15 -15 -11 -4 -18 -10 -15 -15 3 -5 -4 -12 -16 -15 -11 -4
-18 -12 -16 -19 3 -7 -6 -21 -19 -31 -13 -10 -24 -26 -24 -35 0 -10 -7 -21
-16 -24 -8 -3 -12 -11 -9 -16 4 -6 1 -17 -5 -25 -7 -8 -9 -15 -6 -15 4 0 0
-10 -8 -22 -9 -12 -16 -31 -16 -42 0 -10 -8 -25 -18 -33 -9 -8 -11 -12 -5 -8
7 3 13 1 13 -4 0 -6 -4 -11 -9 -11 -6 0 -8 -9 -6 -20 2 -11 0 -20 -6 -20 -5 0
-7 -11 -5 -24 3 -16 0 -23 -7 -20 -8 3 -12 -7 -11 -31 1 -19 -2 -35 -6 -35 -5
0 -7 -9 -5 -20 2 -11 0 -20 -5 -20 -10 0 -8 -19 4 -39 6 -10 5 -12 -2 -7 -12
7 -14 2 -15 -46 -1 -15 -5 -24 -9 -22 -4 3 -8 -6 -8 -20 0 -14 -4 -26 -10 -26
-5 0 -6 -7 -3 -17 4 -11 3 -14 -5 -9 -7 4 -12 1 -12 -10 0 -23 -87 -107 -103
-98 -6 4 -9 4 -5 0 10 -11 -14 -34 -29 -29 -7 3 -13 0 -13 -6 0 -6 -9 -11 -20
-11 -11 0 -20 -4 -20 -10 0 -5 -5 -10 -11 -10 -5 0 -7 6 -3 13 4 6 -1 5 -12
-4 -10 -9 -29 -15 -41 -14 -13 1 -19 -3 -16 -8 4 -6 0 -8 -10 -4 -9 3 -18 3
-21 -1 -2 -4 -21 -7 -40 -7 -20 1 -36 -3 -36 -8 0 -5 -6 -5 -13 2 -10 8 -17 7
-25 -1 -7 -7 -12 -8 -12 -4 0 5 -8 2 -17 -5 -10 -9 -14 -9 -10 -2 6 9 -1 11
-22 8 -17 -2 -36 -7 -42 -11 -8 -5 -9 -3 -4 5 6 10 3 11 -14 2 -16 -9 -21 -9
-21 0 0 8 -4 8 -15 -1 -8 -6 -20 -8 -26 -4 -8 5 -9 3 -4 -6 6 -10 4 -12 -8 -7
-9 3 -16 3 -15 -1 1 -4 -3 -16 -9 -27 -6 -11 -11 -22 -11 -25 -2 -18 -16 -39
-23 -34 -8 5 -13 -10 -6 -20 1 -2 -9 -14 -23 -26 -14 -12 -19 -19 -12 -15 6 3
12 2 12 -3 0 -6 -7 -13 -16 -16 -8 -3 -13 -10 -10 -15 3 -5 -1 -12 -10 -15 -9
-4 -14 -9 -11 -12 3 -4 -1 -13 -9 -21 -8 -8 -11 -19 -8 -25 4 -6 3 -8 -3 -5
-10 6 -45 -28 -36 -36 2 -3 -5 -10 -16 -17 -12 -6 -18 -16 -15 -22 5 -7 2 -9
-9 -5 -9 3 -16 3 -14 -1 1 -4 -28 -38 -65 -74 -36 -36 -63 -70 -60 -74 4 -4 2
-4 -5 0 -7 3 -26 -8 -45 -26 -18 -18 -36 -32 -40 -30 -5 1 -8 -2 -8 -8 0 -5
-6 -7 -14 -4 -7 3 -16 -1 -19 -9 -3 -9 -19 -18 -36 -22 -19 -4 -29 -11 -24
-18 4 -6 0 -8 -10 -4 -9 3 -16 3 -16 -1 3 -20 -2 -33 -11 -27 -5 3 -10 0 -10
-8 0 -8 -7 -20 -15 -27 -8 -6 -13 -17 -12 -22 1 -6 -6 -12 -16 -13 -13 -2 -17
1 -13 11 4 11 2 12 -13 5 -12 -7 -22 -6 -30 2 -8 8 -14 8 -19 2 -7 -10 -27
-17 -49 -18 -7 0 -13 -4 -13 -9 0 -5 -4 -6 -10 -3 -5 3 -10 -1 -10 -9 0 -10
-6 -13 -15 -10 -8 4 -15 1 -15 -5 0 -10 -18 -36 -48 -67 -7 -8 -10 -18 -7 -24
3 -5 2 -10 -2 -10 -12 0 -11 -62 1 -76 13 -14 52 -10 48 5 -1 7 2 10 7 7 5 -4
12 -2 16 4 4 6 11 8 16 5 5 -4 9 -1 9 4 0 6 3 10 8 10 21 -4 32 2 26 14 -5 7
0 6 11 -3 11 -9 16 -10 11 -2 -4 6 -2 13 3 13 26 3 30 4 37 12 4 4 16 7 26 7
10 0 18 5 18 11 0 5 4 8 9 4 5 -3 13 -1 16 5 5 8 12 7 23 -2 11 -9 14 -9 9 -1
-9 14 53 35 66 23 11 -10 -3 -40 -19 -40 -8 0 -13 -6 -11 -12 1 -7 -6 -12 -15
-10 -10 2 -18 -1 -18 -5 0 -5 -8 -9 -19 -9 -13 0 -17 5 -13 15 5 14 4 14 -10
1 -9 -8 -13 -19 -10 -25 3 -5 -1 -5 -9 2 -12 10 -20 9 -36 -2 -11 -8 -23 -12
-25 -10 -3 3 -17 -6 -31 -19 -15 -14 -27 -22 -27 -19 0 3 -9 -6 -21 -21 -11
-14 -17 -30 -14 -36 3 -5 1 -10 -6 -10 -7 0 -9 -3 -6 -7 4 -3 -1 -12 -11 -20
-9 -7 -12 -13 -7 -12 24 3 27 -2 9 -16 -12 -9 -14 -14 -6 -15 7 0 10 -5 7 -10
-6 -9 8 -14 28 -11 4 0 7 -4 7 -10 0 -8 5 -8 15 1 8 7 15 9 15 6 0 -4 10 -1
23 6 12 7 24 13 27 14 24 5 39 18 33 28 -4 6 1 5 10 -3 14 -11 18 -11 23 2 3
8 16 18 28 21 12 3 35 17 51 30 16 14 32 23 36 20 4 -2 10 3 13 12 3 8 10 12
16 9 5 -3 10 -1 10 5 0 6 4 8 10 5 5 -3 10 -1 10 5 0 7 7 10 15 6 8 -3 15 -1
15 5 0 6 4 8 9 4 5 -3 12 -1 16 5 4 6 11 8 16 5 5 -4 9 2 9 11 0 10 3 14 6 11
11 -11 44 13 44 31 0 15 2 15 10 2 5 -8 10 -10 10 -4 0 6 11 24 24 39 14 16
22 33 19 38 -3 6 -1 7 5 3 7 -4 16 2 21 16 5 13 23 34 40 48 17 14 31 33 31
44 0 11 3 16 7 13 3 -4 14 7 24 23 11 17 23 30 29 30 5 0 10 7 10 15 0 8 9 19
20 25 11 6 18 15 15 20 -3 6 1 7 10 4 11 -5 14 -2 8 12 -4 12 -3 15 5 10 7 -4
12 -2 12 5 0 6 11 22 25 35 14 13 25 28 25 34 0 5 7 10 15 10 8 0 15 7 15 17
0 9 3 13 6 10 4 -3 15 5 26 18 11 14 24 23 29 20 5 -4 6 2 2 11 -4 11 -3 15 5
10 6 -3 16 2 22 14 6 11 16 19 23 17 7 -1 11 3 10 10 -2 6 6 15 17 18 11 4 20
10 20 14 0 4 10 7 22 8 11 1 24 7 28 13 4 6 18 12 31 14 13 1 34 8 45 14 12 6
24 9 27 5 4 -3 13 -1 20 5 8 7 17 9 20 5 4 -3 7 0 7 8 0 11 2 11 10 -1 6 -10
10 -11 10 -3 0 7 3 12 8 12 4 -1 10 0 15 1 4 1 19 4 35 5 30 3 57 9 86 21 15
6 18 4 12 -7 -4 -8 -1 -6 7 4 16 20 31 23 22 5 -4 -7 -1 -6 7 2 7 8 24 16 38
18 14 1 31 3 38 4 6 1 12 5 12 10 0 5 9 4 20 -2 15 -8 18 -8 14 3 -4 10 2 14
20 12 15 -2 27 3 30 12 5 12 9 13 21 3 11 -9 15 -9 15 -1 0 7 4 10 9 6 5 -3
12 -1 15 4 4 5 17 8 31 7 13 -2 22 0 20 4 -6 10 24 22 36 14 5 -3 9 0 9 6 0 6
4 9 9 6 14 -9 42 5 34 18 -3 6 -3 8 2 4 4 -4 15 -2 23 5 13 10 14 9 8 -1 -9
-15 39 4 68 27 15 13 18 13 11 2 -5 -8 7 -4 25 9 18 13 30 17 25 9 -5 -8 1 -5
13 5 12 11 22 15 22 10 0 -5 5 -1 11 9 6 9 14 15 18 13 4 -3 17 4 29 14 12 11
28 20 37 20 9 0 13 5 10 10 -3 6 1 10 9 10 9 0 16 5 16 10 0 6 7 10 16 10 8 0
13 4 10 9 -3 4 7 14 22 21 37 18 52 20 52 8 0 -6 9 -8 20 -5 13 3 18 1 13 -6
-4 -6 0 -8 10 -4 10 4 17 1 17 -6 0 -9 2 -9 8 1 7 9 13 8 27 -8 14 -15 21 -17
32 -9 9 9 17 8 27 0 11 -9 15 -9 19 1 4 11 6 10 6 0 1 -7 6 -10 11 -7 6 4 17
2 24 -4 7 -6 20 -9 28 -6 9 4 23 -1 32 -10 9 -9 16 -11 16 -5 0 6 5 8 13 3 6
-4 22 -6 35 -4 12 1 22 -3 22 -10 0 -9 3 -9 14 0 10 8 16 9 21 1 3 -6 11 -8
16 -4 5 3 17 0 26 -8 12 -9 15 -9 9 0 -4 6 -2 12 3 12 6 0 11 -8 11 -17 0 -11
3 -14 8 -7 9 13 42 14 42 1 0 -5 7 -4 15 3 8 7 15 8 15 3 0 -5 12 -8 28 -8 15
1 33 -3 40 -8 8 -6 12 -5 12 4 0 10 3 10 12 1 13 -13 32 -16 24 -4 -2 4 4 8
14 8 10 0 17 -3 14 -7 -2 -4 11 -7 30 -7 19 0 40 -3 47 -8 7 -4 10 -3 5 4 -4
7 1 10 14 9 11 -1 20 -5 20 -9 0 -4 12 -3 27 3 19 7 29 7 31 0 2 -7 10 -8 22
-1 13 7 20 6 22 -2 3 -8 10 -8 26 1 17 9 22 9 22 0 0 -7 4 -8 13 -2 6 5 36 8
65 7 38 -2 50 1 45 9 -4 7 0 6 10 -2 13 -10 17 -10 17 -1 0 10 3 10 15 0 8 -7
15 -9 15 -4 0 5 11 10 25 10 14 1 25 -3 25 -9 0 -6 7 -2 15 9 8 11 14 14 15 6
0 -10 5 -10 20 -2 15 8 20 8 20 -2 0 -6 7 -3 16 8 8 10 13 13 9 7 -3 -7 -1
-13 4 -13 6 0 11 4 11 9 0 5 9 7 20 4 13 -3 20 0 20 8 0 11 2 11 10 -1 8 -12
12 -13 19 -2 9 15 20 15 39 0 9 -8 11 -7 7 4 -4 11 2 14 28 13 40 -2 119 -44
110 -58 -3 -6 -1 -7 4 -4 6 4 16 0 23 -8 7 -8 19 -15 27 -15 8 0 11 -5 7 -12
-4 -7 -4 -10 1 -6 4 4 20 1 36 -7 15 -8 41 -15 56 -15 22 0 25 -2 13 -10 -19
-13 -8 -13 24 0 14 5 26 6 26 2 0 -4 9 -8 20 -9 11 -1 19 1 16 5 -2 4 24 7 57
6 34 -1 66 1 72 4 5 3 21 6 35 7 14 1 31 5 38 9 7 4 12 2 12 -6 0 -10 2 -10 9
1 5 7 14 10 20 7 6 -4 11 -2 11 3 0 6 9 11 21 11 13 0 18 -4 13 -12 -6 -10 -5
-10 7 -1 8 6 33 14 56 16 23 3 47 9 54 13 8 4 9 3 5 -5 -5 -8 4 -7 28 3 25 11
34 11 29 3 -5 -9 -3 -9 8 -1 8 6 24 10 37 9 12 -1 22 3 22 9 0 6 5 4 10 -4 5
-8 10 -10 10 -3 0 6 8 10 18 8 9 -1 25 2 35 7 12 6 17 5 17 -4 0 -9 3 -9 10 2
7 11 10 12 10 2 0 -8 7 -11 18 -8 30 10 22 -22 -11 -46 -19 -14 -28 -16 -23
-7 4 7 1 6 -7 -3 -8 -10 -20 -18 -27 -18 -6 0 -25 -9 -41 -21 -16 -11 -29 -17
-29 -13 0 3 -6 1 -13 -5 -8 -6 -17 -8 -20 -4 -4 3 -7 1 -7 -6 0 -8 -7 -11 -15
-7 -8 3 -15 1 -15 -4 0 -6 -6 -10 -14 -10 -8 0 -22 -7 -30 -16 -9 -8 -20 -13
-25 -9 -6 3 -14 -2 -19 -11 -6 -11 -17 -15 -30 -12 -12 3 -21 3 -20 -1 2 -19
-3 -31 -12 -26 -6 4 -7 11 -4 17 4 5 -5 3 -19 -7 -17 -11 -27 -13 -32 -5 -5 8
-11 8 -19 1 -7 -6 -16 -8 -19 -4 -4 3 -7 2 -7 -4 0 -6 -9 -9 -20 -6 -12 3 -20
0 -20 -6 0 -7 -4 -10 -8 -7 -5 3 -21 -1 -36 -9 -18 -10 -25 -11 -21 -2 4 7 1
5 -7 -3 -7 -8 -25 -21 -40 -29 -15 -8 -25 -18 -22 -23 3 -4 -4 -8 -16 -8 -12
0 -19 -4 -16 -9 3 -5 -1 -11 -9 -15 -8 -3 -15 -1 -15 3 0 11 -19 9 -37 -2 -8
-5 -13 -4 -13 2 0 6 -9 11 -20 11 -11 0 -20 4 -20 9 0 5 -7 12 -16 15 -10 4
-13 2 -9 -7 4 -6 0 -4 -8 5 -10 13 -16 15 -25 6 -9 -9 -12 -9 -12 2 -1 11 -3
10 -11 -3 -6 -9 -14 -15 -20 -12 -5 4 -9 1 -9 -5 0 -6 -4 -9 -9 -5 -5 3 -12 1
-16 -5 -4 -6 -10 -8 -14 -5 -5 2 -16 -4 -26 -15 -10 -11 -21 -17 -25 -15 -4 3
-6 -11 -4 -30 1 -20 -1 -33 -5 -30 -5 2 -11 -5 -14 -16 -3 -12 -10 -18 -16
-14 -7 3 -8 0 -5 -10 4 -8 1 -22 -6 -30 -9 -11 -9 -15 -1 -15 7 0 10 -4 7 -8
-2 -4 4 -14 16 -21 15 -9 18 -10 13 0 -6 8 -4 10 6 3 19 -12 58 -13 65 -2 3 5
12 4 20 -3 11 -9 14 -9 14 0 0 9 5 9 20 1 14 -8 20 -8 20 0 0 6 5 8 11 5 14
-9 69 -13 69 -5 0 4 7 7 15 7 8 0 15 -5 15 -10 0 -5 6 -4 14 2 11 9 16 9 21 0
6 -8 10 -7 16 2 5 8 9 9 9 4 0 -6 9 -11 20 -11 11 0 20 4 20 8 0 5 9 4 20 -2
15 -8 20 -8 20 1 0 8 4 8 15 -1 12 -10 15 -10 15 0 0 10 3 10 15 0 9 -8 15 -8
15 -2 0 6 8 11 18 11 9 0 26 2 37 5 11 2 28 5 38 5 10 1 16 5 12 10 -3 6 3 8
14 6 14 -2 22 3 27 17 5 16 8 18 15 7 7 -11 9 -10 9 4 0 10 4 16 9 12 5 -3 13
0 16 6 4 5 14 8 22 5 8 -3 11 -1 8 4 -6 9 -2 11 31 14 7 1 29 19 49 41 21 22
32 31 24 20 -14 -19 -14 -19 13 0 14 11 25 22 25 25 -1 3 2 6 7 7 5 1 12 6 15
11 3 6 13 12 21 14 20 4 39 22 33 30 -2 4 3 5 11 2 10 -4 16 -1 16 7 0 7 3 10
6 6 3 -3 16 4 29 15 13 11 26 19 30 18 4 -1 13 7 21 17 7 10 14 15 14 11 0 -4
12 4 26 17 15 14 51 37 80 52 29 15 50 31 47 36 -3 6 -1 7 5 4 5 -4 27 10 49
30 21 21 41 37 46 35 4 -1 7 5 7 13 0 8 5 15 11 15 8 0 8 4 0 14 -9 11 -9 16
0 22 8 5 9 3 4 -6 -5 -9 -4 -11 4 -6 9 6 9 11 0 22 -9 11 -8 18 2 31 10 11 10
14 2 9 -9 -5 -13 0 -13 14 0 14 4 19 13 14 8 -5 8 -2 -2 9 -11 14 -11 20 0 34
9 10 9 14 2 10 -9 -6 -11 7 -9 53 3 42 0 65 -10 74 -7 8 -11 16 -9 20 3 3 0 2
-6 -3 -7 -6 -21 -6 -36 0 -14 5 -28 7 -33 4 -5 -3 -11 -1 -15 4 -5 10 -36 8
-54 -3 -5 -3 -14 1 -21 9 -7 8 -17 12 -22 9 -14 -9 -58 -12 -58 -4 0 4 -18 6
-40 5 -24 -1 -40 2 -40 9 0 6 -4 5 -9 -3 -7 -11 -11 -10 -20 5 -6 11 -11 14
-11 7 0 -13 -39 -14 -57 -1 -7 5 -14 5 -18 -2 -5 -8 -11 -8 -21 1 -11 9 -14 8
-14 -2 0 -9 -3 -10 -8 -4 -4 6 -14 10 -22 10 -8 0 -18 -4 -22 -10 -5 -6 -8 -5
-8 2 0 7 -3 12 -7 12 -20 -3 -30 2 -30 16 0 8 5 11 10 8 6 -4 8 3 5 15 -4 13
-1 22 5 22 6 0 7 3 4 7 -4 3 1 16 10 27 15 17 15 19 1 8 -15 -12 -16 -9 -11
28 4 30 2 40 -8 40 -11 0 -11 2 1 10 8 5 10 10 5 10 -6 0 -11 14 -10 30 0 17
3 30 7 30 4 0 5 9 3 20 -2 11 -1 20 3 20 4 0 8 12 9 28 1 15 4 44 7 65 5 29 3
37 -6 31 -10 -5 -10 -4 -1 6 6 7 9 19 6 28 -5 11 -2 13 6 7 10 -6 11 -3 2 13
-8 15 -8 22 2 25 9 4 9 6 0 6 -7 1 -13 6 -13 12 0 5 6 7 13 3 8 -5 8 -2 -2 9
-11 14 -11 17 0 17 10 0 10 3 1 12 -8 8 -8 17 -1 31 8 14 8 18 0 13 -6 -4 -11
-3 -11 3 0 5 6 12 13 14 10 4 10 6 0 6 -7 1 -13 6 -13 12 0 5 5 7 11 3 8 -4 8
-1 1 12 -5 11 -8 45 -7 77 1 31 -3 57 -8 57 -5 0 -4 7 3 15 10 12 9 16 -4 21
-15 6 -15 8 1 20 12 9 14 13 5 14 -9 0 -11 7 -7 21 5 16 4 19 -5 14 -8 -5 -11
-4 -7 2 12 19 16 64 5 57 -6 -4 -9 -1 -6 7 3 8 1 22 -4 32 -6 11 -5 17 3 17 8
0 8 4 -1 15 -7 8 -10 25 -7 36 3 12 0 34 -8 49 -11 21 -11 30 -2 40 9 10 9 11
0 6 -6 -3 -14 -2 -18 4 -3 5 2 10 12 11 15 0 16 1 2 7 -9 4 -15 15 -13 25 1 9
-3 17 -9 17 -5 0 -8 3 -4 6 3 4 0 22 -8 41 -8 18 -10 31 -6 28 5 -3 7 4 4 15
-3 11 -10 17 -16 13 -6 -3 -7 -1 -3 6 4 6 2 18 -4 26 -10 12 -10 15 1 15 11 0
11 2 0 9 -8 5 -16 18 -17 28 -5 36 -13 65 -24 78 -8 10 -7 14 2 18 9 4 8 6 -3
6 -20 1 -30 32 -17 55 7 12 6 16 -4 14 -9 -2 -12 8 -10 36 3 46 3 47 30 49 12
0 19 3 17 6 -8 7 29 30 48 31 9 0 17 5 17 10 0 6 7 10 15 10 8 0 15 3 15 8 0
4 9 13 21 20 12 8 18 9 14 3 -3 -6 -2 -11 4 -11 5 0 11 5 13 12 2 6 13 13 24
14 60 8 75 13 91 25 14 12 16 12 8 0 -6 -11 -4 -13 11 -7 44 18 74 25 68 15
-3 -6 10 0 29 12 19 13 33 27 31 31 -3 5 2 8 12 8 13 0 14 3 4 15 -9 11 -9 15
-1 15 7 0 9 5 6 10 -3 6 -1 10 6 10 7 0 9 3 6 6 -3 4 -2 16 4 27 9 15 8 18 -2
12 -9 -6 -11 -3 -6 8 3 10 2 17 -4 17 -5 0 -13 8 -16 18 -10 24 -29 42 -46 42
-9 0 -17 5 -19 10 -2 6 -13 12 -26 15 -12 2 -27 7 -34 11 -7 4 -8 3 -4 -4 4
-7 3 -12 -3 -12 -5 0 -12 4 -16 10 -3 5 -12 7 -20 3 -8 -3 -15 0 -15 7 0 6 -4
9 -9 6 -5 -4 -11 0 -14 6 -3 10 -8 9 -22 -2 -15 -12 -17 -12 -10 -1 6 11 4 13
-7 8 -9 -3 -19 -3 -22 0 -10 11 -56 9 -56 -1 0 -6 -8 -3 -17 7 -16 16 -18 16
-37 -1 -11 -9 -16 -12 -13 -5 9 14 -9 28 -17 14 -7 -11 -62 14 -74 34 -4 8
-16 16 -27 18 -11 1 -26 6 -34 11 -8 5 -16 3 -22 -5 -7 -11 -9 -11 -9 -1 0 8
-6 12 -12 9 -7 -2 -21 0 -32 5 -14 7 -16 7 -11 -2 6 -9 2 -9 -14 -1 -11 7 -21
8 -21 4 0 -4 -13 7 -30 25 -16 18 -30 36 -30 38 0 3 -7 12 -15 20 -12 12 -15
12 -15 2 0 -8 -3 -9 -8 -3 -9 13 -35 18 -27 5 3 -5 4 -10 1 -10 -2 0 -12 -3
-22 -7 -12 -4 -15 -3 -10 5 4 7 1 12 -6 12 -8 0 -25 14 -40 30 -14 17 -23 30
-19 30 3 0 6 20 5 45 -1 25 3 45 9 45 5 0 4 6 -2 14 -9 11 -9 15 1 19 10 4 10
6 -1 6 -11 1 -11 4 -1 16 10 12 10 15 -1 15 -11 0 -11 2 1 10 12 8 12 10 -3
16 -9 3 -14 10 -11 16 8 13 -33 51 -47 43 -7 -5 -7 -11 0 -19 6 -7 7 -16 3
-20 -4 -4 2 -15 13 -23 19 -15 19 -15 -5 -10 -24 6 -24 5 -6 -8 12 -9 15 -15
7 -15 -7 0 -11 -6 -8 -14 3 -8 1 -17 -6 -20 -9 -3 -9 -5 0 -5 14 -1 6 -32 -11
-43 -12 -8 -49 59 -40 73 3 5 1 9 -4 9 -6 0 -13 7 -16 16 -4 9 -2 13 5 8 6 -3
3 6 -7 22 -12 17 -14 25 -6 20 11 -7 12 -4 4 10 -5 11 -7 25 -4 33 2 8 0 11
-5 8 -6 -4 -9 10 -8 36 1 23 -3 45 -9 49 -8 6 -8 8 1 8 8 0 9 9 3 30 -6 22 -5
28 2 24 7 -5 9 -1 5 9 -4 10 -1 17 6 17 9 0 8 3 -1 9 -11 7 -10 9 3 15 9 3 13
11 9 17 -8 14 16 60 28 53 5 -3 8 -2 7 3 -4 23 2 43 14 41 6 -2 11 3 9 10 -1
6 2 12 8 12 16 0 50 33 50 49 0 8 3 11 7 8 3 -4 12 2 20 13 8 11 19 20 25 20
6 0 19 10 29 22 11 11 19 18 19 14 0 -4 12 2 26 13 15 12 33 21 40 21 8 0 11
6 7 17 -4 10 -2 14 4 10 12 -8 76 37 66 46 -3 4 1 7 11 7 9 0 15 4 12 9 -3 4
6 13 21 20 14 6 23 14 20 17 -3 4 6 17 20 30 13 12 22 28 18 33 -3 6 1 11 9
11 8 0 18 5 22 12 4 7 3 8 -4 4 -7 -4 -12 -2 -12 3 0 6 5 11 10 11 6 0 10 7
10 16 0 8 4 12 10 9 11 -7 25 39 15 55 -3 6 -1 9 7 8 7 -2 12 3 11 10 -2 6 1
12 5 12 5 0 8 10 7 23 -1 12 2 30 7 41 7 13 6 21 -3 27 -11 7 -11 9 -1 9 8 0
10 5 5 13 -4 6 -8 19 -8 27 0 8 -8 16 -17 18 -12 2 -16 -3 -14 -22z m-247
-203 c-4 -3 0 -17 9 -31 9 -14 11 -21 4 -17 -8 5 -11 3 -8 -6 3 -8 1 -22 -4
-31 -6 -13 -5 -18 4 -18 6 0 3 -7 -8 -16 -10 -8 -13 -13 -6 -9 24 12 11 -5
-15 -20 -17 -10 -20 -14 -8 -10 13 3 8 -4 -15 -24 -19 -16 -42 -36 -52 -45 -9
-8 -19 -12 -22 -8 -3 3 -6 0 -6 -6 0 -5 -16 -20 -35 -32 -20 -12 -42 -28 -49
-36 -12 -11 -17 -10 -36 6 -28 24 -44 26 -36 4 3 -8 2 -12 -4 -9 -6 3 -10 1
-10 -4 0 -6 -7 -11 -16 -11 -10 0 -14 6 -11 14 3 7 1 18 -5 24 -6 6 -6 12 3
17 8 6 10 4 4 -6 -5 -8 -4 -11 1 -6 5 5 9 15 9 23 0 7 4 13 9 11 5 -1 13 9 18
23 11 30 27 12 22 -26 -1 -13 2 -22 7 -18 5 3 9 0 9 -5 0 -6 5 -11 11 -11 5 0
7 5 4 10 -3 6 2 10 11 10 10 0 15 3 11 6 -8 8 16 33 26 27 4 -2 7 3 7 11 0 9
4 15 9 14 10 -3 61 52 61 65 0 5 5 5 10 2 6 -3 10 -2 10 4 0 6 10 19 22 31 12
11 18 20 13 20 -5 0 0 7 11 16 10 8 12 13 4 9 -9 -4 -8 0 3 8 10 9 20 24 22
34 5 24 4 23 12 23 3 0 3 -3 0 -7z m-354 -370 c-4 -11 -3 -14 5 -9 7 4 12 2
12 -3 0 -6 -4 -11 -8 -11 -9 0 -10 -4 -15 -53 -2 -16 -8 -32 -13 -35 -5 -4
-11 -16 -12 -27 -2 -11 -8 -25 -13 -32 -7 -7 -6 -14 1 -18 6 -3 8 -11 4 -16
-3 -5 -9 -7 -14 -4 -5 3 -5 -7 -1 -22 6 -20 4 -32 -6 -41 -7 -7 -10 -19 -6
-25 4 -7 8 -23 9 -37 6 -82 10 -110 15 -110 3 0 4 -12 1 -26 -4 -21 -2 -25 9
-19 12 7 12 6 1 -7 -10 -13 -10 -17 0 -22 11 -5 11 -7 0 -12 -10 -5 -10 -9 0
-22 10 -12 10 -14 1 -8 -7 4 -13 2 -13 -3 0 -6 6 -11 13 -11 8 0 7 -4 -3 -10
-12 -8 -12 -10 -1 -10 8 0 11 -3 8 -7 -4 -3 0 -17 8 -30 9 -13 13 -23 10 -23
-3 0 -1 -10 6 -22 10 -18 9 -20 -4 -15 -13 5 -15 2 -7 -19 9 -22 8 -24 -10
-14 -11 6 -20 15 -20 21 0 6 -4 8 -9 5 -5 -3 -17 5 -27 19 -13 17 -20 21 -26
12 -5 -8 -8 -4 -8 11 0 12 -5 22 -11 22 -5 0 -7 5 -4 10 3 6 -1 10 -10 10 -8
0 -19 8 -22 18 -4 9 -14 23 -22 30 -10 9 -11 11 -2 6 10 -5 12 -3 7 5 -5 7
-14 10 -22 7 -8 -3 -11 0 -7 10 3 8 -3 24 -12 35 -10 10 -19 27 -20 37 -1 9
-7 28 -14 41 -10 18 -10 22 0 16 9 -6 10 -4 3 6 -12 20 -12 103 0 111 7 5 5 8
-4 8 -12 0 -12 2 -2 9 7 4 14 19 15 32 1 14 12 35 24 48 12 13 20 27 18 31 -2
3 6 13 17 21 12 8 32 24 44 37 11 12 27 22 33 22 7 0 10 4 6 9 -3 5 4 12 15
16 11 4 18 10 15 15 -3 5 5 10 17 12 15 2 22 9 22 20 -1 10 2 16 6 13 5 -3 11
-1 15 5 10 16 15 12 8 -7z m-43 -283 c0 -5 -5 -10 -11 -10 -5 0 -7 5 -4 10 3
6 8 10 11 10 2 0 4 -4 4 -10z m810 -1620 c0 -5 -2 -10 -4 -10 -3 0 -8 5 -11
10 -3 6 -1 10 4 10 6 0 11 -4 11 -10z m-3780 -1950 c0 -5 -2 -10 -4 -10 -3 0
-8 5 -11 10 -3 6 -1 10 4 10 6 0 11 -4 11 -10z m-27 -48 c-16 -15 -31 -25 -35
-24 -5 1 -7 -1 -7 -5 4 -22 -2 -33 -13 -27 -8 5 -9 2 -5 -10 4 -10 3 -15 -3
-11 -6 3 -13 -1 -16 -9 -3 -9 -13 -16 -21 -16 -8 0 -11 -4 -8 -10 3 -5 2 -10
-4 -10 -6 0 -22 -12 -36 -26 -14 -14 -34 -27 -43 -29 -9 -1 -16 -7 -15 -13 4
-16 -25 -22 -31 -7 -3 8 6 23 20 34 15 12 23 25 18 32 -4 8 -3 9 4 5 7 -4 12
-2 12 4 0 7 7 10 14 7 10 -4 13 -1 10 7 -3 8 0 17 7 22 8 5 10 3 4 -7 -4 -8 1
-5 12 6 11 11 19 23 16 28 -2 4 3 7 11 7 9 0 16 5 16 10 0 6 5 10 11 10 6 0
22 14 36 30 13 17 29 28 34 24 5 -3 9 -1 9 5 0 6 7 8 15 5 12 -5 10 -11 -12
-32z"/>
</g>
</svg>
