<?xml version="1.0" standalone="no"?>
<!DOCTYPE svg PUBLIC "-//W3C//DTD SVG 20010904//EN"
 "http://www.w3.org/TR/2001/REC-SVG-20010904/DTD/svg10.dtd">
<svg version="1.0" xmlns="http://www.w3.org/2000/svg"
 width="128.000000pt" height="128.000000pt" viewBox="0 0 128.000000 128.000000"
 preserveAspectRatio="xMidYMid meet">
<metadata>
Created by potrace 1.11, written by Peter Selinger 2001-2013
</metadata>
<g transform="translate(0.000000,128.000000) scale(0.100000,-0.100000)"
fill="#000000" stroke="none">
<path d="M1087 1273 c-4 -3 -7 -13 -7 -22 0 -9 -9 -27 -20 -41 l-19 -25 -7 34
-7 34 -14 -27 c-9 -17 -20 -25 -29 -22 -7 3 -13 2 -13 -2 3 -18 -2 -32 -12
-32 -5 0 -8 4 -5 9 3 4 -1 17 -8 27 -13 17 -14 16 -9 -11 9 -44 24 -48 60 -13
25 24 31 27 27 11 -7 -25 -57 -55 -78 -47 -9 3 -19 17 -22 30 -6 25 -34 54
-34 36 0 -6 4 -13 8 -16 16 -9 7 -51 -15 -73 -11 -11 -25 -29 -31 -39 -9 -16
-12 -16 -40 7 -17 13 -33 31 -35 39 -4 13 -5 13 -6 0 0 -8 11 -28 25 -45 14
-16 35 -48 46 -70 11 -22 27 -48 35 -57 9 -10 13 -26 10 -37 -3 -13 6 -30 29
-52 18 -18 31 -36 29 -40 -3 -4 0 -40 6 -81 6 -40 11 -86 10 -103 -4 -71 -75
-92 -305 -89 -175 2 -183 5 -193 65 -7 46 -10 47 -27 9 -16 -38 -11 -67 14
-83 17 -10 17 -13 -6 -46 -22 -32 -39 -78 -50 -134 -2 -11 -9 -26 -15 -34 -12
-13 -63 -44 -74 -43 -65 2 -71 0 -99 -44 -15 -24 -37 -52 -49 -62 -49 -42 -94
-72 -111 -75 -10 -2 -26 -15 -35 -28 -15 -24 -15 -24 11 -19 26 5 26 4 11 -19
-9 -13 -13 -27 -9 -31 13 -12 132 60 156 95 55 81 116 122 200 137 48 8 131
39 162 60 20 13 38 22 41 20 2 -3 17 -6 33 -9 16 -2 47 -7 69 -11 57 -9 162
-11 215 -3 34 5 53 2 78 -11 18 -10 43 -17 55 -15 12 1 49 6 82 10 33 4 63 9
67 11 4 3 9 0 12 -4 6 -10 -73 -47 -121 -57 -18 -4 -33 -11 -33 -17 0 -6 -12
-8 -30 -4 -23 4 -36 0 -50 -14 -40 -40 -25 -48 68 -39 60 5 76 11 152 63 47
32 87 60 89 62 2 2 5 21 6 43 l2 40 -72 6 -72 7 -1 137 c0 109 -4 149 -21 201
l-21 65 23 17 c12 9 36 19 54 23 67 12 58 67 -12 74 -31 3 -110 27 -129 39 -6
4 -15 7 -21 7 -5 0 -11 14 -13 30 -2 17 -8 34 -13 39 -5 6 -7 1 -4 -12 6 -34
-13 -26 -20 8 -11 49 4 87 48 125 22 19 43 35 47 35 10 0 39 54 44 83 5 28 4
31 -7 20z m-158 -180 c-5 -21 -6 -62 -3 -90 4 -29 2 -53 -2 -53 -15 0 -54 68
-54 93 0 18 52 87 65 87 2 0 -1 -17 -6 -37z m-749 -936 c0 -2 -13 -16 -30 -32
-16 -16 -30 -25 -30 -21 0 4 12 18 26 31 25 24 34 29 34 22z m-80 -72 c0 -2
-9 -9 -20 -15 -12 -6 -20 -7 -20 -1 0 5 8 12 18 14 9 3 18 5 20 6 1 0 2 -1 2
-4z"/>
</g>
</svg>
