<?xml version="1.0" encoding="UTF-8" standalone="no"?>
<!-- Created with Inkscape (http://www.inkscape.org/) -->

<svg
   xmlns:dc="http://purl.org/dc/elements/1.1/"
   xmlns:cc="http://creativecommons.org/ns#"
   xmlns:rdf="http://www.w3.org/1999/02/22-rdf-syntax-ns#"
   xmlns:svg="http://www.w3.org/2000/svg"
   xmlns="http://www.w3.org/2000/svg"
   version="1.1"
   width="216.5"
   height="199.25375"
   id="svg2"
   xml:space="preserve"><metadata
     id="metadata8"><rdf:RDF><cc:Work
         rdf:about=""><dc:format>image/svg+xml</dc:format><dc:type
           rdf:resource="http://purl.org/dc/dcmitype/StillImage" /><dc:title></dc:title></cc:Work></rdf:RDF></metadata><defs
     id="defs6"><clipPath
       id="clipPath16"><path
         d="M 0,792 612,792 612,0 0,0 0,792 z"
         id="path18" /></clipPath><clipPath
       id="clipPath32"><path
         d="M 0,792 612,792 612,0 0,0 0,792 z"
         id="path34" /></clipPath><clipPath
       id="clipPath40"><path
         d="m 242.188,570.121 112.107,0 0,-113.246 -112.107,0 0,113.246 z"
         id="path42" /></clipPath><clipPath
       id="clipPath44"><path
         d="m 354.295,513.497 c 0,-31.272 -25.096,-56.622 -56.052,-56.622 -30.958,0 -56.055,25.35 -56.055,56.622 0,31.274 25.097,56.624 56.055,56.624 30.956,0 56.052,-25.35 56.052,-56.624"
         id="path46" /></clipPath><radialGradient
       cx="0"
       cy="0"
       r="1"
       fx="0"
       fy="0"
       id="radialGradient48"
       gradientUnits="userSpaceOnUse"
       gradientTransform="matrix(56.048874,0,0,-56.625824,298.24072,513.49805)"
       spreadMethod="pad"><stop
         id="stop50"
         style="stop-color:#868484;stop-opacity:1"
         offset="0" /><stop
         id="stop52"
         style="stop-color:#bdbcbc;stop-opacity:1"
         offset="0.92637599" /><stop
         id="stop54"
         style="stop-color:#bdbcbc;stop-opacity:1"
         offset="0.92637599" /><stop
         id="stop56"
         style="stop-color:#ffffff;stop-opacity:1"
         offset="1" /></radialGradient><clipPath
       id="clipPath76"><path
         d="m 246.372,516.347 c 0,-30.113 24.412,-54.525 54.525,-54.525 l 0,0 c 30.113,0 54.525,24.412 54.525,54.525 l 0,0 c 0,30.113 -24.412,54.525 -54.525,54.525 l 0,0 c -30.113,0 -54.525,-24.412 -54.525,-54.525"
         id="path78" /></clipPath><linearGradient
       x1="0"
       y1="0"
       x2="1"
       y2="0"
       id="linearGradient84"
       gradientUnits="userSpaceOnUse"
       gradientTransform="matrix(0,-108.00151,-108.00151,0,300.89697,570.09082)"
       spreadMethod="pad"><stop
         id="stop86"
         style="stop-color:#f4f4f4;stop-opacity:1"
         offset="0" /><stop
         id="stop88"
         style="stop-color:#d3d2d2;stop-opacity:1"
         offset="1" /></linearGradient><clipPath
       id="clipPath96"><path
         d="m 248.172,516.347 c 0,-29.119 23.605,-52.725 52.725,-52.725 l 0,0 c 29.119,0 52.725,23.606 52.725,52.725 l 0,0 c 0,29.12 -23.606,52.726 -52.725,52.726 l 0,0 c -29.12,0 -52.725,-23.606 -52.725,-52.726"
         id="path98" /></clipPath><linearGradient
       x1="0"
       y1="0"
       x2="1"
       y2="0"
       id="linearGradient104"
       gradientUnits="userSpaceOnUse"
       gradientTransform="matrix(0,-104.43651,-104.43651,0,300.89697,568.31689)"
       spreadMethod="pad"><stop
         id="stop106"
         style="stop-color:#c8c7c7;stop-opacity:1"
         offset="0" /><stop
         id="stop108"
         style="stop-color:#ffffff;stop-opacity:1"
         offset="0.95529199" /><stop
         id="stop110"
         style="stop-color:#ffffff;stop-opacity:1"
         offset="1" /></linearGradient><clipPath
       id="clipPath118"><path
         d="M 0,792 612,792 612,0 0,0 0,792 z"
         id="path120" /></clipPath><clipPath
       id="clipPath130"><path
         d="M 0,792 612,792 612,0 0,0 0,792 z"
         id="path132" /></clipPath><clipPath
       id="clipPath138"><path
         d="m 342.711,563.689 40.677,0 0,-41.089 -40.677,0 0,41.089 z"
         id="path140" /></clipPath><radialGradient
       cx="0"
       cy="0"
       r="1"
       fx="0"
       fy="0"
       id="radialGradient146"
       gradientUnits="userSpaceOnUse"
       gradientTransform="matrix(20.336716,0,0,-20.546066,363.05078,543.14453)"
       spreadMethod="pad"><stop
         id="stop148"
         style="stop-color:#868484;stop-opacity:1"
         offset="0" /><stop
         id="stop150"
         style="stop-color:#bdbcbc;stop-opacity:1"
         offset="0.92637599" /><stop
         id="stop152"
         style="stop-color:#bdbcbc;stop-opacity:1"
         offset="0.92637599" /><stop
         id="stop154"
         style="stop-color:#ffffff;stop-opacity:1"
         offset="1" /></radialGradient><linearGradient
       x1="0"
       y1="0"
       x2="1"
       y2="0"
       id="linearGradient182"
       gradientUnits="userSpaceOnUse"
       gradientTransform="matrix(0,-41.008194,-41.008194,0,364.04297,566.70557)"
       spreadMethod="pad"><stop
         id="stop184"
         style="stop-color:#ffffff;stop-opacity:1"
         offset="0" /><stop
         id="stop186"
         style="stop-color:#deddde;stop-opacity:1"
         offset="1" /></linearGradient><linearGradient
       x1="0"
       y1="0"
       x2="1"
       y2="0"
       id="linearGradient202"
       gradientUnits="userSpaceOnUse"
       gradientTransform="matrix(0,35.827087,35.827087,0,364.04297,528.2832)"
       spreadMethod="pad"><stop
         id="stop204"
         style="stop-color:#ffffff;stop-opacity:1"
         offset="0" /><stop
         id="stop206"
         style="stop-color:#c8c7c7;stop-opacity:1"
         offset="1" /></linearGradient><clipPath
       id="clipPath214"><path
         d="M 0,792 612,792 612,0 0,0 0,792 z"
         id="path216" /></clipPath><linearGradient
       x1="0"
       y1="0"
       x2="1"
       y2="0"
       id="linearGradient238"
       gradientUnits="userSpaceOnUse"
       gradientTransform="matrix(18.257263,23.438553,23.438553,-18.257263,351.50684,530.22461)"
       spreadMethod="pad"><stop
         id="stop240"
         style="stop-color:#82bae7;stop-opacity:1"
         offset="0" /><stop
         id="stop242"
         style="stop-color:#4c83cc;stop-opacity:1"
         offset="1" /></linearGradient><clipPath
       id="clipPath250"><path
         d="M 0,792 612,792 612,0 0,0 0,792 z"
         id="path252" /></clipPath><linearGradient
       x1="0"
       y1="0"
       x2="1"
       y2="0"
       id="linearGradient298"
       gradientUnits="userSpaceOnUse"
       gradientTransform="matrix(-26.250168,-28.500183,-28.500183,26.250168,296.79004,515.84668)"
       spreadMethod="pad"><stop
         id="stop300"
         style="stop-color:#b3db18;stop-opacity:1"
         offset="0" /><stop
         id="stop302"
         style="stop-color:#28ab43;stop-opacity:1"
         offset="1" /></linearGradient><linearGradient
       x1="0"
       y1="0"
       x2="1"
       y2="0"
       id="linearGradient318"
       gradientUnits="userSpaceOnUse"
       gradientTransform="matrix(-24.150269,21.600266,21.600266,24.150269,296.80469,525.36768)"
       spreadMethod="pad"><stop
         id="stop320"
         style="stop-color:#f35b9d;stop-opacity:1"
         offset="0" /><stop
         id="stop322"
         style="stop-color:#e41d25;stop-opacity:1"
         offset="0.71165502" /><stop
         id="stop324"
         style="stop-color:#d01a21;stop-opacity:1"
         offset="0.99450701" /><stop
         id="stop326"
         style="stop-color:#d01a21;stop-opacity:1"
         offset="1" /></linearGradient><linearGradient
       x1="0"
       y1="0"
       x2="1"
       y2="0"
       id="linearGradient342"
       gradientUnits="userSpaceOnUse"
       gradientTransform="matrix(22.400391,-21.400284,-21.400284,-22.400375,306.74854,507.76855)"
       spreadMethod="pad"><stop
         id="stop344"
         style="stop-color:#9d79c3;stop-opacity:1"
         offset="0" /><stop
         id="stop346"
         style="stop-color:#503685;stop-opacity:1"
         offset="1" /></linearGradient><linearGradient
       x1="0"
       y1="0"
       x2="1"
       y2="0"
       id="linearGradient362"
       gradientUnits="userSpaceOnUse"
       gradientTransform="matrix(24.000137,29.200058,29.200058,-24.000137,307.10547,516.21875)"
       spreadMethod="pad"><stop
         id="stop364"
         style="stop-color:#e1a374;stop-opacity:1"
         offset="0" /><stop
         id="stop366"
         style="stop-color:#d45914;stop-opacity:1"
         offset="0.75460798" /><stop
         id="stop368"
         style="stop-color:#d45914;stop-opacity:1"
         offset="1" /></linearGradient><clipPath
       id="clipPath376"><path
         d="M 0,792 612,792 612,0 0,0 0,792 z"
         id="path378" /></clipPath></defs><g
     transform="matrix(1.25,0,0,-1.25,-273.77775,728.10675)"
     id="g10"><g
       id="g12"><g
         clip-path="url(#clipPath16)"
         id="g14"><g
           transform="translate(368.4922,427.5806)"
           id="g20"><path
             d="m 0,0 -125.739,0 c -10.603,0 -19.23,8.627 -19.23,19.232 l 0,111.943 c 0,10.603 8.627,19.23 19.23,19.23 l 125.739,0 c 10.604,0 19.231,-8.627 19.231,-19.23 l 0,-111.943 C 19.231,8.627 10.604,0 0,0"
             id="path22"
             style="fill:#b3db18;fill-opacity:1;fill-rule:nonzero;stroke:none" /></g><g
           transform="translate(368.4922,578.4854)"
           id="g24"><path
             d="m 0,0 -125.739,0 c -10.88,0 -19.731,-8.851 -19.731,-19.73 l 0,-111.943 c 0,-10.879 8.851,-19.73 19.731,-19.73 l 125.739,0 c 10.88,0 19.73,8.851 19.73,19.73 l 0,111.943 C 19.73,-8.851 10.88,0 0,0 m 0,-1 c 10.302,0 18.73,-8.429 18.73,-18.73 l 0,-111.943 c 0,-10.302 -8.428,-18.73 -18.73,-18.73 l -125.739,0 c -10.302,0 -18.731,8.428 -18.731,18.73 l 0,111.943 c 0,10.301 8.429,18.73 18.731,18.73 L 0,-1"
             id="path26"
             style="fill:#ffffff;fill-opacity:1;fill-rule:nonzero;stroke:none" /></g></g></g><g
       id="g28"><g
         clip-path="url(#clipPath32)"
         id="g30"><g
           id="g36"><g
             id="g38" /><g
             id="g58"><g
               clip-path="url(#clipPath40)"
               id="g60"><g
                 id="g62"><g
                   clip-path="url(#clipPath44)"
                   id="g64"><g
                     id="g66"><g
                       id="g68"><path
                         d="m 354.295,513.497 c 0,-31.272 -25.096,-56.622 -56.052,-56.622 -30.958,0 -56.055,25.35 -56.055,56.622 0,31.274 25.097,56.624 56.055,56.624 30.956,0 56.052,-25.35 56.052,-56.624"
                         id="path70"
                         style="fill:url(#radialGradient48);stroke:none" /></g></g></g></g></g></g></g></g></g><g
       id="g72"><g
         clip-path="url(#clipPath76)"
         id="g74"><g
           id="g80"><g
             id="g82"><path
               d="m 246.372,516.347 c 0,-30.113 24.412,-54.525 54.525,-54.525 l 0,0 c 30.113,0 54.525,24.412 54.525,54.525 l 0,0 c 0,30.113 -24.412,54.525 -54.525,54.525 l 0,0 c -30.113,0 -54.525,-24.412 -54.525,-54.525"
               id="path90"
               style="fill:url(#linearGradient84);stroke:none" /></g></g></g></g><g
       id="g92"><g
         clip-path="url(#clipPath96)"
         id="g94"><g
           id="g100"><g
             id="g102"><path
               d="m 248.172,516.347 c 0,-29.119 23.605,-52.725 52.725,-52.725 l 0,0 c 29.119,0 52.725,23.606 52.725,52.725 l 0,0 c 0,29.12 -23.606,52.726 -52.725,52.726 l 0,0 c -29.12,0 -52.725,-23.606 -52.725,-52.726"
               id="path112"
               style="fill:url(#linearGradient104);stroke:none" /></g></g></g></g><g
       id="g114"><g
         clip-path="url(#clipPath118)"
         id="g116"><g
           transform="translate(239.4478,527.0776)"
           id="g122"><path
             d="m 0,0 c 0,0 3.011,2.941 3.058,6.22 0.045,3.19 -1.553,19.557 -1.553,19.56 0,0.24 -0.164,0.435 -0.364,0.435 C 0.939,26.215 0.776,26.02 0.776,25.78 0.776,25.77 0.579,9.218 0.579,9.218 0.579,8.951 0.388,8.736 0.152,8.734 l -0.005,0 -0.286,0 -0.006,0 C -0.38,8.736 -0.571,8.951 -0.571,9.218 l -0.202,16.599 c -0.013,0.227 -0.191,0.409 -0.411,0.409 -0.22,0 -0.398,-0.182 -0.411,-0.409 l -0.001,0 -0.202,-16.599 c 0,-0.267 -0.189,-0.482 -0.425,-0.484 l -0.006,0 -0.286,0 -0.006,0 c -0.235,0.002 -0.426,0.217 -0.426,0.484 l -0.199,16.599 c -0.014,0.227 -0.192,0.409 -0.413,0.409 -0.22,0 -0.399,-0.182 -0.412,-0.409 l -10e-4,0 -10e-4,-0.02 c 0,-0.002 0,-0.004 0,-0.006 0,-0.002 0,-0.003 0,-0.005 l -0.2,-16.568 c 0,-0.267 -0.19,-0.482 -0.426,-0.484 l -0.006,0 -0.286,0 -0.006,0 c -0.235,0.002 -0.425,0.217 -0.425,0.484 l -0.203,16.599 c -0.012,0.227 -0.167,0.409 -0.358,0.409 -0.192,0 -0.347,-0.182 -0.359,-0.409 l -0.002,0 c 0,0 -1.604,-16.317 -1.557,-19.597 C -7.753,2.941 -4.743,0 -4.743,0 c 1.25,-1.085 0.856,-4.511 0.856,-6.996 0,-2.542 -1.664,-35.18 -1.625,-35.728 0.15,-3.243 1.49,-4.315 3.129,-4.449 l 0,-0.003 c 0.004,0 0.008,0.001 0.011,0.001 0.004,0 0.008,-0.001 0.012,-0.001 l 0,0.003 c 1.639,0.134 2.979,1.206 3.129,4.449 0.039,0.548 -1.626,33.186 -1.626,35.728 0,2.485 -0.393,5.911 0.857,6.996"
             id="path124"
             style="fill:#ffffff;fill-opacity:1;fill-rule:nonzero;stroke:none" /></g></g></g><g
       id="g126"><g
         clip-path="url(#clipPath130)"
         id="g128"><g
           id="g134"><g
             id="g136" /><g
             id="g156"><g
               clip-path="url(#clipPath138)"
               id="g158"><g
                 id="g160"><g
                   id="g162"><g
                     id="g164"><g
                       id="g166"><path
                         d="m 383.388,543.144 c 0,-11.347 -9.108,-20.544 -20.339,-20.544 -11.233,0 -20.338,9.197 -20.338,20.544 0,11.346 9.105,20.545 20.338,20.545 11.231,0 20.339,-9.198 20.339,-20.545"
                         id="path168"
                         style="fill:url(#radialGradient146);stroke:none" /></g></g></g></g></g></g></g></g></g><g
       id="g170"><g
         id="g172"><g
           id="g178"><g
             id="g180"><path
               d="m 343.236,546.317 c 0,-11.493 9.316,-20.809 20.808,-20.809 l 0,0 c 11.493,0 20.808,9.316 20.808,20.809 l 0,0 c 0,11.491 -9.315,20.807 -20.808,20.807 l 0,0 c -11.492,0 -20.808,-9.316 -20.808,-20.807"
               id="path188"
               style="fill:url(#linearGradient182);stroke:none" /></g></g></g></g><g
       id="g190"><g
         id="g192"><g
           id="g198"><g
             id="g200"><path
               d="m 345.259,546.317 c 0,-10.376 8.409,-18.785 18.784,-18.785 l 0,0 c 10.376,0 18.785,8.409 18.785,18.785 l 0,0 c 0,10.373 -8.409,18.783 -18.785,18.783 l 0,0 c -10.375,0 -18.784,-8.41 -18.784,-18.783"
               id="path208"
               style="fill:url(#linearGradient202);stroke:none" /></g></g></g></g><g
       id="g210"><g
         clip-path="url(#clipPath214)"
         id="g212"><g
           transform="translate(380.9922,546.3184)"
           id="g218"><path
             d="m 0,0 c 0,-9.36 -7.588,-16.951 -16.947,-16.951 -9.361,0 -16.95,7.591 -16.95,16.951 0,9.36 7.589,16.947 16.95,16.947 C -7.588,16.947 0,9.36 0,0"
             id="path220"
             style="fill:#3e6ba7;fill-opacity:1;fill-rule:nonzero;stroke:none" /></g><g
           transform="translate(379.5273,546.3179)"
           id="g222"><path
             d="m 0,0 c 0,-8.552 -6.931,-15.484 -15.482,-15.484 -8.551,0 -15.484,6.932 -15.484,15.484 0,8.551 6.933,15.482 15.484,15.482 C -6.931,15.482 0,8.551 0,0"
             id="path224"
             style="fill:#82bae7;fill-opacity:1;fill-rule:nonzero;stroke:none" /></g></g></g><g
       id="g226"><g
         id="g228"><g
           id="g234"><g
             id="g236"><path
               d="m 350.456,546.318 c 0,-7.504 6.083,-13.59 13.589,-13.59 l 0,0 c 7.502,0 13.586,6.086 13.586,13.59 l 0,0 c 0,7.505 -6.084,13.587 -13.586,13.587 l 0,0 c -7.506,0 -13.589,-6.082 -13.589,-13.587"
               id="path244"
               style="fill:url(#linearGradient238);stroke:none" /></g></g></g></g><g
       id="g246"><g
         clip-path="url(#clipPath250)"
         id="g248"><g
           transform="translate(255.166,519.7061)"
           id="g254"><path
             d="m 0,0 c -0.044,-0.597 -0.074,-1.197 -0.094,-1.8 -0.018,-0.52 -0.03,-1.042 -0.03,-1.567 0,-0.078 0.003,-0.155 0.003,-0.233 0.119,-23.861 18.446,-43.407 41.797,-45.475 0.597,-0.053 1.197,-0.098 1.801,-0.128 0.597,-0.029 1.196,-0.051 1.799,-0.058 L 45.276,0 0,0 z"
             id="path256"
             style="fill:#168235;fill-opacity:1;fill-rule:nonzero;stroke:none" /></g><g
           transform="translate(298.6426,562.1758)"
           id="g258"><path
             d="m 0,0 c -0.604,-0.029 -1.204,-0.073 -1.8,-0.125 -20.358,-1.803 -36.894,-16.893 -40.879,-36.543 -0.121,-0.596 -0.23,-1.196 -0.328,-1.8 -0.097,-0.596 -0.183,-1.196 -0.256,-1.8 l 45.063,0 0,40.325 C 1.196,0.051 0.597,0.029 0,0"
             id="path260"
             style="fill:#a9151a;fill-opacity:1;fill-rule:nonzero;stroke:none" /></g><g
           transform="translate(302.6421,511.2393)"
           id="g262"><path
             d="m 0,0 0,-37.091 0,-2.297 0,-1.378 c 0.603,0.022 1.203,0.058 1.8,0.103 0.604,0.046 1.203,0.105 1.8,0.174 19.966,2.296 36.03,17.399 39.771,36.889 0.114,0.596 0.217,1.196 0.309,1.8 0.09,0.596 0.17,1.196 0.237,1.8 L 0,0 z"
             id="path264"
             style="fill:#3f2a66;fill-opacity:1;fill-rule:nonzero;stroke:none" /></g><g
           transform="translate(346.834,517.0391)"
           id="g266"><path
             d="m 0,0 c -0.348,23.239 -17.967,42.285 -40.592,44.887 -0.596,0.069 -1.196,0.129 -1.8,0.175 -0.597,0.044 -1.196,0.082 -1.8,0.104 l 0,-48.766 44.106,0 c 0.038,0.597 0.061,1.198 0.076,1.8 0.009,0.366 0.018,0.732 0.018,1.1 0,0.234 -0.004,0.467 -0.008,0.7"
             id="path268"
             style="fill:#a9460f;fill-opacity:1;fill-rule:nonzero;stroke:none" /></g><g
           transform="translate(256.4492,517.9053)"
           id="g270"><path
             d="m 0,0 c -0.019,-0.521 -0.03,-1.042 -0.03,-1.567 0,-0.078 0.003,-0.155 0.003,-0.233 0.118,-23.1 17.83,-42.03 40.42,-44.094 0.597,-0.054 1.197,-0.099 1.8,-0.13 L 42.193,0 0,0 z"
             id="path272"
             style="fill:#b3db18;fill-opacity:1;fill-rule:nonzero;stroke:none" /></g><g
           transform="translate(296.8423,560.668)"
           id="g274"><path
             d="m 0,0 c -19.596,-1.79 -35.52,-16.273 -39.474,-35.161 -0.125,-0.596 -0.238,-1.195 -0.339,-1.8 l 41.613,0 0,37.09 C 1.197,0.098 0.597,0.055 0,0"
             id="path276"
             style="fill:#f35b9d;fill-opacity:1;fill-rule:nonzero;stroke:none" /></g><g
           transform="translate(304.4424,509.4385)"
           id="g278"><path
             d="m 0,0 0,-37.481 c 0.604,0.046 1.203,0.107 1.8,0.178 19.204,2.278 34.657,16.776 38.367,35.503 0.119,0.596 0.226,1.196 0.319,1.8 L 0,0 z"
             id="path280"
             style="fill:#9d79c3;fill-opacity:1;fill-rule:nonzero;stroke:none" /></g><g
           transform="translate(345.457,517.0381)"
           id="g282"><path
             d="m 0,0 c -0.347,22.479 -17.352,40.907 -39.215,43.501 -0.597,0.071 -1.196,0.133 -1.8,0.18 l 0,-45.481 41.004,0 c 0.01,0.366 0.019,0.732 0.019,1.1 0,0.234 -0.004,0.467 -0.008,0.7"
             id="path284"
             style="fill:#e1a374;fill-opacity:1;fill-rule:nonzero;stroke:none" /></g></g></g><g
       id="g286"><g
         id="g288"><g
           id="g294"><g
             id="g296"><path
               d="m 258.719,516.104 c 0.119,-21.832 16.805,-39.734 38.126,-41.79 l 0,0 0,41.79 -38.126,0 z"
               id="path304"
               style="fill:url(#linearGradient298);stroke:none" /></g></g></g></g><g
       id="g306"><g
         id="g308"><g
           id="g314"><g
             id="g316"><path
               d="m 259.718,525.505 37.127,0 0,32.859 c -18.326,-1.767 -33.226,-15.243 -37.127,-32.859"
               id="path328"
               style="fill:url(#linearGradient318);stroke:none" /></g></g></g></g><g
       id="g330"><g
         id="g332"><g
           id="g338"><g
             id="g340"><path
               d="m 306.245,507.637 0,-33.193 c 17.935,2.245 32.371,15.737 36.028,33.193 l 0,0 -36.028,0 z"
               id="path348"
               style="fill:url(#linearGradient342);stroke:none" /></g></g></g></g><g
       id="g350"><g
         id="g352"><g
           id="g358"><g
             id="g360"><path
               d="m 306.245,517.037 36.92,0 c -0.345,21.21 -16.327,38.611 -36.92,41.191 l 0,0 0,-41.191 z"
               id="path370"
               style="fill:url(#linearGradient362);stroke:none" /></g></g></g></g><g
       id="g372"><g
         clip-path="url(#clipPath376)"
         id="g374"><g
           transform="translate(232.4595,447.4111)"
           id="g380"><path
             d="m 0,0 0,0.031 c 0,3.047 2.278,5.571 5.448,5.571 1.955,0 3.124,-0.693 4.201,-1.708 L 8.819,3.001 C 7.911,3.863 6.895,4.478 5.433,4.478 3.047,4.478 1.262,2.539 1.262,0.062 l 0,-0.031 c 0,-2.493 1.801,-4.448 4.171,-4.448 1.477,0 2.446,0.569 3.478,1.555 l 0.8,-0.785 C 8.588,-4.786 7.356,-5.54 5.402,-5.54 2.293,-5.54 0,-3.094 0,0"
             id="path382"
             style="fill:#ffffff;fill-opacity:1;fill-rule:nonzero;stroke:none" /></g><g
           transform="translate(243.3242,453.29)"
           id="g384"><path
             d="m 0,0 1.185,0 0,-4.663 c 0.523,0.861 1.354,1.554 2.724,1.554 1.924,0 3.047,-1.292 3.047,-3.186 l 0,-4.939 -1.185,0 0,4.647 c 0,1.477 -0.8,2.4 -2.201,2.4 -1.369,0 -2.385,-1 -2.385,-2.493 l 0,-4.554 -1.185,0 L 0,0 z"
             id="path386"
             style="fill:#ffffff;fill-opacity:1;fill-rule:nonzero;stroke:none" /></g><g
           transform="translate(258.2363,445.9951)"
           id="g388"><path
             d="m 0,0 0,0.03 c 0,1.709 -1.277,3.11 -2.955,3.11 -1.724,0 -2.908,-1.401 -2.908,-3.078 l 0,-0.032 c 0,-1.708 1.261,-3.093 2.939,-3.093 C -1.2,-3.063 0,-1.678 0,0 m -7.079,0 0,0.03 c 0,2.247 1.754,4.156 4.155,4.156 2.385,0 4.14,-1.877 4.14,-4.124 l 0,-0.032 c 0,-2.247 -1.77,-4.154 -4.171,-4.154 -2.385,0 -4.124,1.877 -4.124,4.124"
             id="path390"
             style="fill:#ffffff;fill-opacity:1;fill-rule:nonzero;stroke:none" /></g><g
           transform="translate(267.0234,445.9951)"
           id="g392"><path
             d="m 0,0 0,0.03 c 0,1.709 -1.277,3.11 -2.955,3.11 -1.724,0 -2.908,-1.401 -2.908,-3.078 l 0,-0.032 c 0,-1.708 1.261,-3.093 2.939,-3.093 C -1.2,-3.063 0,-1.678 0,0 m -7.079,0 0,0.03 c 0,2.247 1.754,4.156 4.155,4.156 2.385,0 4.14,-1.877 4.14,-4.124 l 0,-0.032 c 0,-2.247 -1.77,-4.154 -4.171,-4.154 -2.385,0 -4.124,1.877 -4.124,4.124"
             id="path394"
             style="fill:#ffffff;fill-opacity:1;fill-rule:nonzero;stroke:none" /></g><g
           transform="translate(268.5615,443.0708)"
           id="g396"><path
             d="m 0,0 0.6,0.847 c 0.862,-0.646 1.816,-1.016 2.755,-1.016 0.954,0 1.646,0.493 1.646,1.262 l 0,0.031 c 0,0.799 -0.938,1.108 -1.984,1.4 C 1.77,2.878 0.385,3.309 0.385,4.771 l 0,0.031 c 0,1.369 1.138,2.278 2.708,2.278 0.97,0 2.047,-0.339 2.863,-0.878 L 5.417,5.31 C 4.678,5.787 3.832,6.079 3.063,6.079 2.124,6.079 1.523,5.587 1.523,4.925 l 0,-0.031 C 1.523,4.14 2.508,3.848 3.57,3.524 4.802,3.155 6.125,2.678 6.125,1.247 l 0,-0.031 C 6.125,-0.292 4.878,-1.169 3.293,-1.169 2.154,-1.169 0.893,-0.723 0,0"
             id="path398"
             style="fill:#ffffff;fill-opacity:1;fill-rule:nonzero;stroke:none" /></g><g
           transform="translate(281.5654,446.5029)"
           id="g400"><path
             d="M 0,0 C -0.139,1.446 -0.97,2.678 -2.54,2.678 -3.909,2.678 -4.956,1.539 -5.125,0 L 0,0 z m -2.324,-3.602 c 1.093,0 1.862,0.447 2.509,1.124 L 0.923,-3.14 c -0.8,-0.892 -1.77,-1.492 -3.278,-1.492 -2.186,0 -3.97,1.677 -3.97,4.154 0,2.309 1.615,4.156 3.816,4.156 2.355,0 3.709,-1.877 3.709,-4.217 0,-0.107 0,-0.231 -0.015,-0.415 l -6.31,0 c 0.169,-1.678 1.4,-2.648 2.801,-2.648"
             id="path402"
             style="fill:#ffffff;fill-opacity:1;fill-rule:nonzero;stroke:none" /></g><g
           transform="translate(283.8271,452.8281)"
           id="g404"><path
             d="M 0,0 3.755,0 6.063,-3.786 8.372,0 l 3.755,0 0,-10.772 -3.586,0 0,5.339 -2.478,-3.832 -0.061,0 -2.478,3.832 0,-5.339 -3.524,0 L 0,0 z"
             id="path406"
             style="fill:#231f20;fill-opacity:1;fill-rule:nonzero;stroke:none" /></g><g
           transform="translate(296.7842,440.4238)"
           id="g408"><path
             d="m 0,0 1.016,2.386 c 0.63,-0.354 1.215,-0.555 1.539,-0.555 0.2,0 0.384,0.031 0.569,0.123 l -3.293,8.08 3.616,0 1.462,-4.432 1.339,4.432 3.556,0 L 6.895,2.216 C 6.079,0.016 5.187,-0.877 3.247,-0.877 2.031,-0.877 0.938,-0.523 0,0"
             id="path410"
             style="fill:#231f20;fill-opacity:1;fill-rule:nonzero;stroke:none" /></g><g
           transform="translate(311.7881,447.5498)"
           id="g412"><path
             d="m 0,0 c 0.924,0 1.539,0.415 1.539,1.185 l 0,0.031 C 1.539,2 0.97,2.4 0.016,2.4 L -0.97,2.4 -0.97,0 0,0 z m -4.57,5.278 4.847,0 c 2.863,0 4.818,-1.277 4.818,-3.832 l 0,-0.03 C 5.095,-1.186 3.108,-2.57 0.2,-2.57 l -1.17,0 0,-2.924 -3.6,0 0,10.772 z"
             id="path414"
             style="fill:#231f20;fill-opacity:1;fill-rule:nonzero;stroke:none" /></g><path
           d="m 317.59,453.29 3.493,0 0,-11.234 -3.493,0 0,11.234 z"
           id="path416"
           style="fill:#231f20;fill-opacity:1;fill-rule:nonzero;stroke:none" /><g
           transform="translate(327.0537,445.1641)"
           id="g418"><path
             d="m 0,0 0,0.354 c -0.2,0.077 -0.508,0.138 -0.8,0.138 -0.693,0 -1.078,-0.415 -1.078,-0.938 l 0,-0.032 c 0,-0.492 0.355,-0.815 0.801,-0.815 C -0.462,-1.293 0,-0.8 0,0 m -5.217,-0.724 0,0.031 c 0,1.677 1.246,2.617 3.2,2.617 0.709,0 1.617,-0.154 1.987,-0.308 l 0,0.139 c 0,0.769 -0.478,1.216 -1.555,1.216 -0.861,0 -1.585,-0.186 -2.324,-0.478 l -0.615,2.324 c 0.968,0.37 2.078,0.616 3.539,0.616 C 0.724,5.433 1.831,5.079 2.57,4.34 3.201,3.709 3.447,2.893 3.447,1.677 l 0,-4.785 -3.493,0 0,0.845 c -0.585,-0.631 -1.37,-1.046 -2.416,-1.046 -1.616,0 -2.755,0.923 -2.755,2.585"
             id="path420"
             style="fill:#231f20;fill-opacity:1;fill-rule:nonzero;stroke:none" /></g><g
           transform="translate(332.0566,444.8711)"
           id="g422"><path
             d="m 0,0 0,2.894 -0.985,0 0,2.693 0.985,0 0,2.108 3.494,0 0,-2.108 1.939,0 0,-2.693 -1.939,0 0,-2.123 c 0,-0.632 0.292,-0.863 0.846,-0.863 0.323,0 0.692,0.092 1.062,0.262 l 0,-2.693 C 4.848,-2.815 4.017,-3 3.17,-3 1.108,-3 0,-2.046 0,0"
             id="path424"
             style="fill:#231f20;fill-opacity:1;fill-rule:nonzero;stroke:none" /></g><g
           transform="translate(343.292,446.9805)"
           id="g426"><path
             d="M 0,0 C -0.077,0.8 -0.554,1.262 -1.169,1.262 -1.754,1.262 -2.17,0.769 -2.277,0 L 0,0 z m -5.509,-0.771 0,0.032 c 0,2.509 1.8,4.417 4.324,4.417 2.986,0 4.372,-2.078 4.372,-4.633 0,-0.185 0,-0.4 -0.016,-0.585 l -5.402,0 c 0.246,-0.738 0.831,-1.123 1.585,-1.123 0.631,0 1.155,0.293 1.709,0.862 L 2.94,-3.294 c -0.832,-1.077 -2.016,-1.831 -3.833,-1.831 -2.754,0 -4.616,1.738 -4.616,4.354"
             id="path428"
             style="fill:#231f20;fill-opacity:1;fill-rule:nonzero;stroke:none" /></g><path
           d="m 347.908,443.671 1.416,0 0,-1.616 -1.416,0 0,1.616 z"
           id="path430"
           style="fill:#ffffff;fill-opacity:1;fill-rule:nonzero;stroke:none" /><g
           transform="translate(356.9414,446.4106)"
           id="g432"><path
             d="m 0,0 0,0.031 c 0,1.632 -1.416,2.693 -2.924,2.693 -1.508,0 -2.755,-1.047 -2.755,-2.678 l 0,-0.031 c 0,-1.6 1.278,-2.709 2.755,-2.709 C -1.416,-2.694 0,-1.601 0,0 m -6.525,-5.741 0.539,0.924 c 0.908,-0.662 1.923,-1.016 3.062,-1.016 1.754,0 2.894,0.97 2.894,2.832 l 0,0.938 c -0.693,-0.923 -1.662,-1.677 -3.124,-1.677 -1.909,0 -3.741,1.431 -3.741,3.725 l 0,0.03 c 0,2.324 1.848,3.756 3.741,3.756 1.492,0 2.462,-0.739 3.108,-1.602 l 0,1.432 1.185,0 0,-6.571 c 0,-1.232 -0.369,-2.17 -1.016,-2.817 -0.707,-0.708 -1.769,-1.061 -3.031,-1.061 -1.323,0 -2.555,0.369 -3.617,1.107"
             id="path434"
             style="fill:#ffffff;fill-opacity:1;fill-rule:nonzero;stroke:none" /></g><g
           transform="translate(366.1602,445.9951)"
           id="g436"><path
             d="m 0,0 0,0.03 c 0,1.709 -1.277,3.11 -2.955,3.11 -1.724,0 -2.909,-1.401 -2.909,-3.078 l 0,-0.032 c 0,-1.708 1.261,-3.093 2.939,-3.093 C -1.201,-3.063 0,-1.678 0,0 m -7.08,0 0,0.03 c 0,2.247 1.754,4.156 4.155,4.156 2.386,0 4.14,-1.877 4.14,-4.124 l 0,-0.032 c 0,-2.247 -1.77,-4.154 -4.17,-4.154 -2.386,0 -4.125,1.877 -4.125,4.124"
             id="path438"
             style="fill:#ffffff;fill-opacity:1;fill-rule:nonzero;stroke:none" /></g><g
           transform="translate(367.1123,450.0117)"
           id="g440"><path
             d="M 0,0 1.309,0 3.986,-6.603 6.68,0 7.957,0 4.494,-8.018 3.448,-8.018 0,0 z"
             id="path442"
             style="fill:#ffffff;fill-opacity:1;fill-rule:nonzero;stroke:none" /></g><g
           transform="translate(313.3027,534.8564)"
           id="g444"><path
             d="M 0,0 C 1.305,0 1.942,-0.675 1.942,-0.675 L 1.388,-1.38 c 0,0 -0.555,0.473 -1.365,0.473 -0.922,0 -1.71,-0.728 -1.71,-1.808 0,-1.162 0.795,-1.874 1.748,-1.874 0.847,0 1.349,0.555 1.349,0.555 l 0,0.397 c 0,0.113 -0.059,0.165 -0.165,0.165 l -0.322,0 0,0.832 0.862,0 c 0.36,0 0.51,-0.149 0.51,-0.502 l 0,-2.272 -0.84,0 0,0.255 c 0,0.113 0.008,0.225 0.008,0.225 l -0.016,0 c 0,0 -0.569,-0.57 -1.566,-0.57 -1.395,0 -2.588,1.065 -2.588,2.782 C -2.707,-1.192 -1.544,0 0,0"
             id="path446"
             style="fill:#ffffff;fill-opacity:1;fill-rule:nonzero;stroke:none" /></g><g
           transform="translate(316.6191,532.292)"
           id="g448"><path
             d="m 0,0 c 0,0.112 -0.061,0.165 -0.166,0.165 l -0.3,0 0,0.81 0.87,0 c 0.338,0 0.51,-0.143 0.51,-0.465 l 0,-0.225 c 0,-0.142 -0.015,-0.24 -0.015,-0.24 l 0.015,0 c 0.173,0.547 0.63,0.982 1.215,0.982 0.082,0 0.173,-0.015 0.173,-0.015 l 0,-0.937 c 0,0 -0.098,0.015 -0.234,0.015 C 1.664,0.09 1.199,-0.143 1.027,-0.712 0.975,-0.899 0.944,-1.11 0.944,-1.335 l 0,-1.515 L 0,-2.85 0,0 z"
             id="path450"
             style="fill:#ffffff;fill-opacity:1;fill-rule:nonzero;stroke:none" /></g><g
           transform="translate(320.6455,530.0947)"
           id="g452"><path
             d="m 0,0 c 0.511,0 0.87,0.54 0.87,1.005 l 0,0.09 -0.165,0 C 0.21,1.095 -0.577,1.027 -0.577,0.495 -0.577,0.24 -0.39,0 0,0 m 0.735,1.747 0.119,0 0,0.03 c 0,0.548 -0.216,0.75 -0.704,0.75 -0.172,0 -0.509,-0.045 -0.509,-0.255 l 0,-0.202 -0.885,0 0,0.405 c 0,0.712 1.005,0.787 1.401,0.787 1.276,0 1.651,-0.667 1.651,-1.522 l 0,-1.425 C 1.808,0.21 1.867,0.15 1.972,0.15 l 0.3,0 0,-0.802 -0.855,0 c -0.352,0 -0.486,0.195 -0.486,0.42 0,0.097 0.007,0.165 0.007,0.165 l -0.015,0 c 0,0 -0.293,-0.675 -1.155,-0.675 -0.683,0 -1.304,0.428 -1.304,1.192 0,1.2 1.648,1.297 2.271,1.297"
             id="path454"
             style="fill:#ffffff;fill-opacity:1;fill-rule:nonzero;stroke:none" /></g><path
           d="m 323.759,534.767 0.825,0 0,-0.877 -0.825,0 0,0.877 z m -0.045,-2.475 c 0,0.112 -0.061,0.165 -0.165,0.165 l -0.3,0 0,0.81 0.907,0 c 0.353,0 0.502,-0.158 0.502,-0.51 l 0,-2.347 c 0,-0.105 0.061,-0.165 0.165,-0.165 l 0.3,0 0,-0.803 -0.907,0 c -0.353,0 -0.502,0.151 -0.502,0.511 l 0,2.339 z"
           id="path456"
           style="fill:#ffffff;fill-opacity:1;fill-rule:nonzero;stroke:none" /><g
           transform="translate(325.9258,532.292)"
           id="g458"><path
             d="m 0,0 c 0,0.112 -0.06,0.165 -0.165,0.165 l -0.3,0 0,0.81 0.877,0 c 0.338,0 0.503,-0.158 0.503,-0.428 l 0,-0.112 C 0.915,0.353 0.9,0.27 0.9,0.27 l 0.015,0 C 1.08,0.592 1.492,1.064 2.265,1.064 3.112,1.064 3.6,0.622 3.6,-0.39 l 0,-1.492 c 0,-0.105 0.059,-0.165 0.164,-0.165 l 0.3,0 0,-0.803 -0.908,0 c -0.359,0 -0.51,0.151 -0.51,0.511 l 0,1.754 c 0,0.465 -0.119,0.78 -0.599,0.78 -0.51,0 -0.892,-0.322 -1.027,-0.78 -0.052,-0.157 -0.075,-0.33 -0.075,-0.51 l 0,-1.755 L 0,-2.85 0,0 z"
             id="path460"
             style="fill:#ffffff;fill-opacity:1;fill-rule:nonzero;stroke:none" /></g><g
           transform="translate(330.7637,530.6572)"
           id="g462"><path
             d="m 0,0 c 0,0 0.487,-0.563 1.14,-0.563 0.292,0 0.517,0.121 0.517,0.375 0,0.541 -2.017,0.533 -2.017,1.77 0,0.765 0.69,1.117 1.485,1.117 0.518,0 1.342,-0.172 1.342,-0.794 l 0,-0.398 -0.84,0 0,0.188 c 0,0.18 -0.27,0.27 -0.481,0.27 -0.336,0 -0.569,-0.12 -0.569,-0.345 0,-0.6 2.032,-0.48 2.032,-1.755 0,-0.719 -0.637,-1.17 -1.469,-1.17 -1.05,0 -1.59,0.683 -1.59,0.683 L 0,0 z"
             id="path464"
             style="fill:#ffffff;fill-opacity:1;fill-rule:nonzero;stroke:none" /></g><g
           transform="translate(356.1328,545.1069)"
           id="g466"><path
             d="m 0,0 0.48,0 c 1.065,0 1.748,0.637 1.748,1.837 0,1.185 -0.698,1.822 -1.748,1.822 l -0.644,0 0,-3.494 C -0.164,0.06 -0.104,0 0,0 m -1.146,3.659 -0.489,0 0,0.833 2.168,0 c 1.642,0 2.714,-0.975 2.714,-2.655 0,-1.679 -1.072,-2.67 -2.714,-2.67 l -1.17,0 c -0.36,0 -0.509,0.151 -0.509,0.511 l 0,3.981 z"
             id="path468"
             style="fill:#ffffff;fill-opacity:1;fill-rule:nonzero;stroke:none" /></g><g
           transform="translate(361.4277,544.9268)"
           id="g470"><path
             d="m 0,0 c 0.511,0 0.87,0.54 0.87,1.005 l 0,0.09 -0.165,0 c -0.494,0 -1.281,-0.068 -1.281,-0.6 C -0.576,0.24 -0.39,0 0,0 m 0.735,1.747 0.12,0 0,0.03 c 0,0.548 -0.217,0.75 -0.705,0.75 -0.171,0 -0.509,-0.045 -0.509,-0.255 l 0,-0.202 -0.885,0 0,0.405 c 0,0.712 1.005,0.787 1.402,0.787 1.275,0 1.65,-0.667 1.65,-1.522 l 0,-1.425 C 1.808,0.21 1.867,0.15 1.973,0.15 l 0.299,0 0,-0.802 -0.854,0 c -0.353,0 -0.488,0.195 -0.488,0.42 0,0.097 0.008,0.165 0.008,0.165 l -0.015,0 c 0,0 -0.292,-0.675 -1.155,-0.675 -0.682,0 -1.305,0.428 -1.305,1.192 0,1.2 1.65,1.297 2.272,1.297"
             id="path472"
             style="fill:#ffffff;fill-opacity:1;fill-rule:nonzero;stroke:none" /></g><path
           d="m 364.541,549.599 0.825,0 0,-0.878 -0.825,0 0,0.878 z m -0.045,-2.475 c 0,0.112 -0.06,0.165 -0.165,0.165 l -0.3,0 0,0.81 0.907,0 c 0.353,0 0.502,-0.158 0.502,-0.51 l 0,-2.347 c 0,-0.105 0.061,-0.165 0.165,-0.165 l 0.3,0 0,-0.803 -0.907,0 c -0.352,0 -0.502,0.151 -0.502,0.511 l 0,2.339 z"
           id="path474"
           style="fill:#ffffff;fill-opacity:1;fill-rule:nonzero;stroke:none" /><g
           transform="translate(366.708,547.124)"
           id="g476"><path
             d="m 0,0 c 0,0.112 -0.06,0.165 -0.165,0.165 l -0.3,0 0,0.81 0.87,0 c 0.338,0 0.51,-0.143 0.51,-0.465 l 0,-0.225 C 0.915,0.143 0.9,0.045 0.9,0.045 l 0.015,0 c 0.172,0.547 0.63,0.982 1.215,0.982 0.082,0 0.173,-0.015 0.173,-0.015 l 0,-0.937 c 0,0 -0.098,0.015 -0.234,0.015 C 1.665,0.09 1.2,-0.143 1.028,-0.712 0.976,-0.9 0.945,-1.11 0.945,-1.335 l 0,-1.515 L 0,-2.85 0,0 z"
             id="path478"
             style="fill:#ffffff;fill-opacity:1;fill-rule:nonzero;stroke:none" /></g><g
           transform="translate(370.1953,543.5024)"
           id="g480"><path
             d="M 0,0 C 0.263,0 0.495,0.158 0.63,0.487 L 0.758,0.78 -0.518,3.652 C -0.563,3.764 -0.615,3.787 -0.72,3.787 l -0.112,0 0,0.809 0.63,0 c 0.269,0 0.405,-0.097 0.503,-0.36 L 1.05,2.325 C 1.125,2.129 1.186,1.814 1.186,1.814 l 0.014,0 c 0,0 0.06,0.315 0.127,0.511 l 0.652,1.911 c 0.091,0.263 0.248,0.36 0.51,0.36 l 0.646,0 0,-0.809 -0.114,0 C 2.909,3.787 2.85,3.764 2.805,3.652 L 1.432,0.195 c -0.27,-0.69 -0.809,-0.997 -1.379,-0.997 -0.6,0 -0.967,0.389 -0.967,0.389 l 0.367,0.675 C -0.547,0.262 -0.314,0 0,0"
             id="path482"
             style="fill:#ffffff;fill-opacity:1;fill-rule:nonzero;stroke:none" /></g><g
           transform="translate(270.9585,538.7236)"
           id="g484"><path
             d="m 0,0 -0.488,0 0,0.832 3.037,0 c 0.36,0 0.51,-0.157 0.51,-0.51 l 0,-0.809 -0.885,0 0,0.322 C 2.174,-0.06 2.114,0 2.009,0 l -1.027,0 0,-1.507 1.702,0 0,-0.833 -1.702,0 0,-2.151 L 0,-4.491 0,0 z"
             id="path486"
             style="fill:#ffffff;fill-opacity:1;fill-rule:nonzero;stroke:none" /></g><g
           transform="translate(274.7832,537.0811)"
           id="g488"><path
             d="m 0,0 c 0,0.113 -0.06,0.165 -0.165,0.165 l -0.3,0 0,0.81 0.87,0 c 0.337,0 0.51,-0.142 0.51,-0.465 l 0,-0.225 C 0.915,0.143 0.9,0.045 0.9,0.045 l 0.015,0 c 0.172,0.548 0.63,0.982 1.215,0.982 0.082,0 0.172,-0.014 0.172,-0.014 l 0,-0.938 c 0,0 -0.097,0.015 -0.233,0.015 C 1.665,0.09 1.2,-0.142 1.027,-0.712 0.975,-0.899 0.945,-1.109 0.945,-1.334 l 0,-1.515 L 0,-2.849 0,0 z"
             id="path490"
             style="fill:#ffffff;fill-opacity:1;fill-rule:nonzero;stroke:none" /></g><g
           transform="translate(277.9033,537.0811)"
           id="g492"><path
             d="m 0,0 c 0,0.113 -0.06,0.165 -0.165,0.165 l -0.3,0 0,0.81 0.907,0 c 0.353,0 0.503,-0.158 0.503,-0.502 l 0,-1.762 c 0,-0.465 0.119,-0.78 0.592,-0.78 0.69,0 1.072,0.607 1.072,1.29 l 0,1.754 0.953,0 0,-2.857 c 0,-0.104 0.06,-0.165 0.165,-0.165 l 0.299,0 0,-0.802 -0.877,0 c -0.33,0 -0.502,0.158 -0.502,0.428 l 0,0.105 c 0,0.089 0.007,0.172 0.007,0.172 l -0.014,0 C 2.459,-2.542 1.979,-2.939 1.32,-2.939 0.502,-2.939 0,-2.526 0,-1.484 L 0,0 z"
             id="path494"
             style="fill:#ffffff;fill-opacity:1;fill-rule:nonzero;stroke:none" /></g><path
           d="m 282.778,539.556 0.825,0 0,-0.877 -0.825,0 0,0.877 z m -0.045,-2.475 c 0,0.113 -0.06,0.165 -0.165,0.165 l -0.299,0 0,0.81 0.907,0 c 0.352,0 0.502,-0.158 0.502,-0.51 l 0,-2.347 c 0,-0.104 0.06,-0.165 0.165,-0.165 l 0.3,0 0,-0.802 -0.908,0 c -0.352,0 -0.502,0.15 -0.502,0.51 l 0,2.339 z"
           id="path496"
           style="fill:#ffffff;fill-opacity:1;fill-rule:nonzero;stroke:none" /><g
           transform="translate(284.9604,537.2988)"
           id="g498"><path
             d="m 0,0 -0.495,0 0,0.757 0.517,0 0,1.043 0.931,0 0,-1.043 0.869,0 0,-0.757 -0.869,0 0,-1.545 c 0,-0.63 0.494,-0.72 0.756,-0.72 0.105,0 0.173,0.015 0.173,0.015 l 0,-0.832 c 0,0 -0.12,-0.022 -0.293,-0.022 C 1.057,-3.104 0,-2.947 0,-1.665 L 0,0 z"
             id="path500"
             style="fill:#ffffff;fill-opacity:1;fill-rule:nonzero;stroke:none" /></g><g
           transform="translate(287.7354,535.4468)"
           id="g502"><path
             d="m 0,0 c 0,0 0.487,-0.562 1.14,-0.562 0.293,0 0.517,0.12 0.517,0.375 0,0.54 -2.017,0.532 -2.017,1.77 0,0.764 0.69,1.117 1.485,1.117 0.517,0 1.342,-0.173 1.342,-0.795 l 0,-0.398 -0.84,0 0,0.188 c 0,0.18 -0.27,0.269 -0.48,0.269 -0.337,0 -0.57,-0.119 -0.57,-0.344 0,-0.6 2.032,-0.48 2.032,-1.755 0,-0.72 -0.637,-1.17 -1.469,-1.17 -1.05,0 -1.59,0.682 -1.59,0.682 L 0,0 z"
             id="path504"
             style="fill:#ffffff;fill-opacity:1;fill-rule:nonzero;stroke:none" /></g><g
           transform="translate(260.7998,506.9678)"
           id="g506"><path
             d="m 0,0 c -0.045,0.128 -0.105,0.165 -0.232,0.165 l -0.135,0 0,0.833 0.622,0 c 0.375,0 0.51,-0.098 0.63,-0.435 l 1.019,-2.97 c 0.106,-0.3 0.202,-0.78 0.202,-0.78 l 0.016,0 c 0,0 0.097,0.48 0.202,0.78 l 1.02,2.97 C 3.464,0.9 3.592,0.998 3.967,0.998 l 0.63,0 0,-0.833 -0.143,0 C 4.326,0.165 4.266,0.128 4.222,0 l -1.59,-4.326 -1.035,0 L 0,0 z"
             id="path508"
             style="fill:#ffffff;fill-opacity:1;fill-rule:nonzero;stroke:none" /></g><g
           transform="translate(267.834,505.0488)"
           id="g510"><path
             d="M 0,0 C -0.015,0.457 -0.33,0.772 -0.72,0.772 -1.207,0.772 -1.552,0.479 -1.657,0 L 0,0 z m -0.72,1.507 c 1.095,0 1.695,-0.802 1.695,-1.815 0,-0.112 -0.023,-0.352 -0.023,-0.352 l -2.639,0 c 0.075,-0.675 0.57,-1.028 1.147,-1.028 0.615,0 1.073,0.428 1.073,0.428 L 0.93,-1.92 c 0,0 -0.585,-0.577 -1.537,-0.577 -1.268,0 -2.055,0.915 -2.055,2.002 0,1.177 0.795,2.002 1.942,2.002"
             id="path512"
             style="fill:#ffffff;fill-opacity:1;fill-rule:nonzero;stroke:none" /></g><g
           transform="translate(272.0117,504.6436)"
           id="g514"><path
             d="m 0,0 c 0,0.87 -0.435,1.103 -0.952,1.103 -0.577,0 -0.893,-0.42 -0.893,-1.065 0,-0.668 0.338,-1.163 0.952,-1.163 C -0.435,-1.125 0,-0.862 0,0 m -1.117,1.912 c 0.885,0 1.177,-0.54 1.177,-0.54 l 0.015,0 0,0.098 c 0,0.172 0.12,0.352 0.42,0.352 l 0.885,0 0,-0.81 -0.293,0 C 0.99,1.012 0.922,0.96 0.922,0.862 l 0,-2.632 c 0,-1.312 -1.02,-1.806 -2.017,-1.806 -0.48,0 -0.989,0.135 -1.357,0.329 l 0.293,0.75 c 0,0 0.471,-0.255 1.056,-0.255 0.578,0 1.081,0.248 1.081,0.938 l 0,0.179 c 0,0.09 0.007,0.203 0.007,0.203 l -0.015,0 c -0.225,-0.323 -0.555,-0.495 -1.065,-0.495 -1.094,0 -1.717,0.885 -1.717,1.935 0,1.05 0.592,1.904 1.695,1.904"
             id="path516"
             style="fill:#ffffff;fill-opacity:1;fill-rule:nonzero;stroke:none" /></g><g
           transform="translate(276.3018,505.0488)"
           id="g518"><path
             d="M 0,0 C -0.015,0.457 -0.33,0.772 -0.72,0.772 -1.208,0.772 -1.552,0.479 -1.657,0 L 0,0 z m -0.72,1.507 c 1.095,0 1.695,-0.802 1.695,-1.815 0,-0.112 -0.023,-0.352 -0.023,-0.352 l -2.64,0 c 0.076,-0.675 0.571,-1.028 1.148,-1.028 0.615,0 1.072,0.428 1.072,0.428 L 0.93,-1.92 c 0,0 -0.585,-0.577 -1.537,-0.577 -1.268,0 -2.055,0.915 -2.055,2.002 0,1.177 0.795,2.002 1.942,2.002"
             id="path520"
             style="fill:#ffffff;fill-opacity:1;fill-rule:nonzero;stroke:none" /></g><g
           transform="translate(278.0645,505.7085)"
           id="g522"><path
             d="m 0,0 -0.495,0 0,0.757 0.517,0 0,1.042 0.93,0 0,-1.042 0.87,0 0,-0.757 -0.87,0 0,-1.544 c 0,-0.63 0.495,-0.721 0.758,-0.721 0.104,0 0.172,0.015 0.172,0.015 l 0,-0.832 c 0,0 -0.12,-0.022 -0.292,-0.022 C 1.058,-3.104 0,-2.947 0,-1.665 L 0,0 z"
             id="path524"
             style="fill:#ffffff;fill-opacity:1;fill-rule:nonzero;stroke:none" /></g><g
           transform="translate(281.8145,503.2939)"
           id="g526"><path
             d="m 0,0 c 0.51,0 0.87,0.54 0.87,1.005 l 0,0.09 -0.165,0 C 0.21,1.095 -0.577,1.027 -0.577,0.495 -0.577,0.24 -0.39,0 0,0 m 0.734,1.747 0.12,0 0,0.03 c 0,0.547 -0.217,0.75 -0.705,0.75 -0.171,0 -0.509,-0.045 -0.509,-0.255 l 0,-0.203 -0.885,0 0,0.406 c 0,0.712 1.005,0.787 1.402,0.787 1.275,0 1.65,-0.668 1.65,-1.523 l 0,-1.424 C 1.807,0.21 1.867,0.15 1.972,0.15 l 0.299,0 0,-0.802 -0.854,0 c -0.353,0 -0.487,0.195 -0.487,0.42 0,0.097 0.008,0.165 0.008,0.165 l -0.016,0 c 0,0 -0.292,-0.675 -1.154,-0.675 -0.683,0 -1.305,0.427 -1.305,1.192 0,1.199 1.649,1.297 2.271,1.297"
             id="path528"
             style="fill:#ffffff;fill-opacity:1;fill-rule:nonzero;stroke:none" /></g><g
           transform="translate(286.5464,503.354)"
           id="g530"><path
             d="m 0,0 c 0.518,0 0.96,0.427 0.96,1.185 0,0.727 -0.39,1.199 -0.952,1.199 -0.495,0 -0.96,-0.36 -0.96,-1.207 C -0.952,0.584 -0.637,0 0,0 m -1.875,3.636 c 0,0.113 -0.059,0.165 -0.165,0.165 l -0.299,0 0,0.81 0.907,0 c 0.352,0 0.51,-0.157 0.51,-0.51 l 0,-1.109 c 0,-0.188 -0.015,-0.323 -0.015,-0.323 l 0.015,0 c 0,0 0.338,0.533 1.147,0.533 1.035,0 1.694,-0.818 1.694,-2.002 0,-1.215 -0.742,-2.002 -1.754,-2.002 -0.795,0 -1.14,0.54 -1.14,0.54 l -0.015,0 c 0,0 0.015,-0.106 0.015,-0.255 l 0,-0.195 -0.9,0 0,4.348 z"
             id="path532"
             style="fill:#ffffff;fill-opacity:1;fill-rule:nonzero;stroke:none" /></g><g
           transform="translate(289.1045,506.9902)"
           id="g534"><path
             d="m 0,0 c 0,0.113 -0.06,0.165 -0.165,0.165 l -0.3,0 0,0.81 0.907,0 c 0.353,0 0.51,-0.158 0.51,-0.51 l 0,-3.846 c 0,-0.105 0.061,-0.165 0.165,-0.165 l 0.293,0 0,-0.803 -0.9,0 C 0.15,-4.349 0,-4.199 0,-3.839 L 0,0 z"
             id="path536"
             style="fill:#ffffff;fill-opacity:1;fill-rule:nonzero;stroke:none" /></g><g
           transform="translate(293.439,505.0488)"
           id="g538"><path
             d="M 0,0 C -0.015,0.457 -0.33,0.772 -0.72,0.772 -1.208,0.772 -1.552,0.479 -1.657,0 L 0,0 z m -0.72,1.507 c 1.095,0 1.695,-0.802 1.695,-1.815 0,-0.112 -0.023,-0.352 -0.023,-0.352 l -2.639,0 c 0.075,-0.675 0.569,-1.028 1.147,-1.028 0.615,0 1.072,0.428 1.072,0.428 l 0.397,-0.66 c 0,0 -0.584,-0.577 -1.536,-0.577 -1.268,0 -2.055,0.915 -2.055,2.002 0,1.177 0.795,2.002 1.942,2.002"
             id="path540"
             style="fill:#ffffff;fill-opacity:1;fill-rule:nonzero;stroke:none" /></g><g
           transform="translate(295.2017,503.8564)"
           id="g542"><path
             d="m 0,0 c 0,0 0.488,-0.563 1.14,-0.563 0.292,0 0.517,0.121 0.517,0.375 0,0.541 -2.017,0.533 -2.017,1.77 0,0.765 0.69,1.117 1.485,1.117 0.517,0 1.342,-0.172 1.342,-0.795 l 0,-0.397 -0.84,0 0,0.187 c 0,0.18 -0.27,0.27 -0.48,0.27 -0.337,0 -0.569,-0.119 -0.569,-0.345 0,-0.599 2.031,-0.479 2.031,-1.754 0,-0.72 -0.637,-1.17 -1.469,-1.17 -1.05,0 -1.59,0.682 -1.59,0.682 L 0,0 z"
             id="path544"
             style="fill:#ffffff;fill-opacity:1;fill-rule:nonzero;stroke:none" /></g><g
           transform="translate(311.6543,498.6602)"
           id="g546"><path
             d="m 0,0 c 0.555,0 0.87,0.359 0.87,0.915 0,0.547 -0.315,0.899 -0.854,0.899 l -0.803,0 L -0.787,0 0,0 z m -1.77,1.814 -0.487,0 0,0.832 2.437,0 c 0.998,0 1.695,-0.697 1.695,-1.731 0,-1.035 -0.697,-1.755 -1.695,-1.755 l -0.967,0 0,-1.837 -0.983,0 0,4.491 z"
             id="path548"
             style="fill:#ffffff;fill-opacity:1;fill-rule:nonzero;stroke:none" /></g><g
           transform="translate(314.3027,498.832)"
           id="g550"><path
             d="m 0,0 c 0,0.113 -0.061,0.165 -0.165,0.165 l -0.3,0 0,0.81 0.869,0 c 0.338,0 0.51,-0.142 0.51,-0.465 l 0,-0.225 c 0,-0.142 -0.015,-0.24 -0.015,-0.24 l 0.015,0 c 0.173,0.548 0.631,0.982 1.215,0.982 0.082,0 0.173,-0.014 0.173,-0.014 l 0,-0.938 c 0,0 -0.098,0.015 -0.233,0.015 -0.405,0 -0.87,-0.232 -1.042,-0.802 C 0.975,-0.899 0.944,-1.109 0.944,-1.334 l 0,-1.515 L 0,-2.849 0,0 z"
             id="path552"
             style="fill:#ffffff;fill-opacity:1;fill-rule:nonzero;stroke:none" /></g><g
           transform="translate(318.959,496.7031)"
           id="g554"><path
             d="M 0,0 C 0.623,0 1.141,0.479 1.141,1.192 1.141,1.896 0.623,2.384 0,2.384 -0.614,2.384 -1.132,1.896 -1.132,1.192 -1.132,0.479 -0.614,0 0,0 M 0,3.194 C 1.17,3.194 2.1,2.361 2.1,1.192 2.1,0.015 1.17,-0.81 0,-0.81 c -1.162,0 -2.092,0.825 -2.092,2.002 0,1.169 0.93,2.002 2.092,2.002"
             id="path556"
             style="fill:#ffffff;fill-opacity:1;fill-rule:nonzero;stroke:none" /></g><g
           transform="translate(321.9375,499.0498)"
           id="g558"><path
             d="m 0,0 -0.495,0 0,0.757 0.517,0 0,1.043 0.93,0 0,-1.043 0.87,0 0,-0.757 -0.87,0 0,-1.545 c 0,-0.63 0.495,-0.72 0.757,-0.72 0.105,0 0.173,0.015 0.173,0.015 l 0,-0.832 c 0,0 -0.12,-0.022 -0.292,-0.022 C 1.057,-3.104 0,-2.947 0,-1.665 L 0,0 z"
             id="path560"
             style="fill:#ffffff;fill-opacity:1;fill-rule:nonzero;stroke:none" /></g><g
           transform="translate(326.917,498.3896)"
           id="g562"><path
             d="M 0,0 C -0.015,0.458 -0.33,0.772 -0.72,0.772 -1.208,0.772 -1.553,0.48 -1.657,0 L 0,0 z m -0.72,1.507 c 1.094,0 1.695,-0.802 1.695,-1.814 0,-0.113 -0.023,-0.352 -0.023,-0.352 l -2.64,0 c 0.076,-0.675 0.57,-1.028 1.148,-1.028 0.615,0 1.072,0.428 1.072,0.428 l 0.397,-0.66 c 0,0 -0.584,-0.578 -1.536,-0.578 -1.268,0 -2.055,0.915 -2.055,2.002 0,1.178 0.795,2.002 1.942,2.002"
             id="path564"
             style="fill:#ffffff;fill-opacity:1;fill-rule:nonzero;stroke:none" /></g><path
           d="m 328.89,501.307 0.825,0 0,-0.877 -0.825,0 0,0.877 z m -0.045,-2.475 c 0,0.113 -0.06,0.165 -0.165,0.165 l -0.3,0 0,0.81 0.907,0 c 0.353,0 0.502,-0.158 0.502,-0.51 l 0,-2.347 c 0,-0.104 0.061,-0.165 0.166,-0.165 l 0.299,0 0,-0.802 -0.907,0 c -0.353,0 -0.502,0.15 -0.502,0.51 l 0,2.339 z"
           id="path566"
           style="fill:#ffffff;fill-opacity:1;fill-rule:nonzero;stroke:none" /><g
           transform="translate(331.0566,498.832)"
           id="g568"><path
             d="m 0,0 c 0,0.113 -0.06,0.165 -0.164,0.165 l -0.301,0 0,0.81 0.878,0 c 0.337,0 0.502,-0.158 0.502,-0.427 l 0,-0.113 C 0.915,0.353 0.9,0.271 0.9,0.271 l 0.015,0 C 1.08,0.593 1.492,1.065 2.265,1.065 3.112,1.065 3.6,0.623 3.6,-0.39 l 0,-1.492 c 0,-0.104 0.059,-0.165 0.165,-0.165 l 0.299,0 0,-0.802 -0.907,0 c -0.36,0 -0.51,0.15 -0.51,0.51 l 0,1.755 c 0,0.464 -0.12,0.779 -0.6,0.779 -0.51,0 -0.892,-0.322 -1.027,-0.779 C 0.968,-0.742 0.945,-0.915 0.945,-1.095 l 0,-1.754 L 0,-2.849 0,0 z"
             id="path570"
             style="fill:#ffffff;fill-opacity:1;fill-rule:nonzero;stroke:none" /></g></g></g></g></svg>